<svg width="188" height="188" viewBox="0 0 188 188" fill="none" xmlns="http://www.w3.org/2000/svg">
<path d="M148.262 48.8799C131.225 62.8624 131.599 89.1382 131.599 89.1382C131.599 89.1382 134.808 72.108 165.02 67.1366" stroke="#212121" stroke-width="3" stroke-miterlimit="10"/>
<path d="M96.4458 101.947C96.4458 101.947 38.9084 92.3631 31.9317 52.8694C28.2525 32.0578 39.6205 19.5727 49.8725 17.751C60.5137 15.8637 82.4135 26.637 90.5125 68.3643C98.62 110.098 96.4462 101.947 96.4462 101.947H96.4458Z" fill="#BDBDBD" fill-opacity="0.25"/>
<path d="M104.694 110.003C104.694 110.003 106.023 128.546 117.215 131.196C117.215 131.196 112.375 151.443 90.1522 159.219C57.5173 170.653 47.6097 156.84 46.0756 148.152C42.4478 127.575 65.1482 111.133 78.1522 108.834C97.3846 105.434 104.692 110.001 104.692 110.001L104.694 110.003Z" fill="#EDCD5D"/>
<path d="M117.449 89.5501C111.457 93.1265 108.196 102.864 112.786 115.782C117.611 129.353 139.738 144.414 155.652 133.392C160.697 129.896 156.32 105.045 141.493 94.6679C131.513 87.6914 124.404 85.3927 117.45 89.5492L117.449 89.5501Z" fill="#BDBDBD"/>
<path d="M43.1368 150.062L45.7731 156.003L21.3914 162.979L43.1368 150.062Z" fill="#212121"/>
<path d="M78.1518 108.835C78.1518 108.835 74.546 142.543 105.214 150.291C105.214 150.291 98.8181 156.46 91.4229 158.766C91.4229 158.766 69.3987 152.979 65.3887 114.086C65.396 114.086 71.6528 109.745 78.1522 108.835" fill="#212121"/>
</svg>
