<svg width="188" height="188" viewBox="0 0 188 188" fill="none" xmlns="http://www.w3.org/2000/svg">
<path d="M39.7377 48.8799C56.7752 62.8624 56.4007 89.1382 56.4007 89.1382C56.4007 89.1382 53.1915 72.108 22.9799 67.1366" stroke="#212121" stroke-width="3" stroke-miterlimit="10"/>
<path d="M91.5542 101.947C91.5542 101.947 149.092 92.3631 156.068 52.8694C159.747 32.0578 148.379 19.5727 138.127 17.751C127.486 15.8637 105.587 26.637 97.4875 68.3643C89.38 110.098 91.5538 101.947 91.5538 101.947H91.5542Z" fill="#ED715D"/>
<path d="M83.3064 110.003C83.3064 110.003 81.9772 128.546 70.7852 131.196C70.7852 131.196 75.6247 151.443 97.8478 159.219C130.483 170.653 140.39 156.84 141.924 148.152C145.552 127.575 122.852 111.133 109.848 108.834C90.6154 105.434 83.3079 110.001 83.3079 110.001L83.3064 110.003Z" fill="#ED715D"/>
<path d="M70.5506 89.5501C76.5431 93.1265 79.8038 102.864 75.2139 115.782C70.3891 129.353 48.2623 144.414 32.3481 133.392C27.3029 129.896 31.6798 105.045 46.5067 94.6679C56.4869 87.6914 63.5955 85.3927 70.55 89.5492L70.5506 89.5501Z" fill="#ED715D"/>
<path d="M144.863 150.062L142.227 156.003L166.609 162.979L144.863 150.062Z" fill="#212121"/>
<path d="M109.848 108.835C109.848 108.835 113.454 142.543 82.7856 150.291C82.7856 150.291 89.1819 156.46 96.5771 158.766C96.5771 158.766 118.601 152.979 122.611 114.086C122.604 114.086 116.347 109.745 109.848 108.835" fill="#212121"/>
</svg>
