<svg width="1440" height="1496" viewBox="0 0 1440 1496" fill="none" xmlns="http://www.w3.org/2000/svg">
<g clip-path="url(#clip0)">
<path d="M453 731.5C453 766.844 424.344 795.5 389 795.5V796H117C72.812 796 37 760.187 37 716C37 677.25 64.563 644.937 101.156 637.594C101.156 637.063 101 636.563 101 636C101 582.969 143.969 540 197 540C234.438 540 266.5 561.625 282.344 592.875C290.719 589.937 299.594 588 309 588C352.844 588 388.344 623.25 388.906 667H389V667.5C424.344 667.5 453 696.156 453 731.5Z" fill="url(#paint0_linear)"/>
<path d="M1013 844.318C1013 874.83 1037.59 899.568 1067.92 899.568V900H1301.35C1339.27 900 1370 869.083 1370 830.938C1370 797.485 1346.35 769.59 1314.94 763.251C1314.94 762.793 1315.08 762.361 1315.08 761.875C1315.08 716.094 1278.2 679 1232.69 679C1200.56 679 1173.05 697.668 1159.45 724.646C1152.27 722.11 1144.65 720.438 1136.58 720.438C1098.95 720.438 1068.49 750.868 1068 788.637H1067.92V789.068C1037.59 789.068 1013 813.807 1013 844.318Z" fill="url(#paint1_linear)"/>
<path d="M927 865.986C927 884.625 942.017 899.736 960.538 899.736V900H1103.08C1126.23 900 1145 881.114 1145 857.812C1145 837.378 1130.56 820.338 1111.38 816.466C1111.38 816.186 1111.46 815.922 1111.46 815.625C1111.46 787.659 1088.94 765 1061.15 765C1041.53 765 1024.73 776.404 1016.43 792.883C1012.04 791.334 1007.39 790.312 1002.46 790.312C979.486 790.312 960.882 808.901 960.588 831.973H960.538V832.236C942.017 832.236 927 847.348 927 865.986Z" fill="url(#paint2_linear)"/>
<path d="M1260.71 255.802C1209.64 331.756 1261.99 424.25 1068.97 544.684C979.211 600.565 1028.83 700.606 899.242 743.641C892.177 745.889 705.263 739.948 705.102 740.108C704.46 740.429 703.818 740.59 703.175 740.911C682.461 748.78 668.972 728.225 659.819 730.795C514.495 772.064 473.387 725.335 435.811 652.753C370.777 527.341 247.452 557.37 217.745 405.622C199.921 314.574 193.337 265.116 106.785 199.439C26.9773 138.901 9.47416 59.7354 0 0H1440.55C1440.55 162.185 1315.3 174.389 1260.71 255.802Z" fill="#002869"/>
<path d="M672.504 1358.02C802.413 1371.02 1147.5 1127.26 1147.5 1127.26C1081.5 1066.73 723.568 1158.9 723.568 1158.9C704.62 1165.16 661.424 1353.52 672.504 1358.02Z" fill="#002869"/>
<path d="M756.327 1356.09C626.579 1369.1 268.167 1123.89 268.167 1123.89C369.492 1067.69 705.423 1156.97 705.423 1156.97C724.211 1163.23 767.407 1351.43 756.327 1356.09Z" fill="#002869"/>
<path d="M926.862 1195.19C926.862 1195.19 891.695 1130.15 850.908 1068.81C769.334 1078.29 672.023 1081.02 591.894 1072.03C591.894 1072.03 534.567 1145.41 525.093 1192.94C516.101 1238.71 884.951 1281.1 926.862 1195.19Z" fill="#002869"/>
<path d="M660.461 1364.92C660.461 1364.92 654.68 1316.75 679.088 1313.21C719.875 1307.11 776.881 1301.65 802.574 1300.37C836.295 1298.76 865.521 1314.5 869.053 1332.81C873.71 1356.73 831.478 1373.43 803.376 1373.59C695.949 1373.91 664.155 1361.39 660.461 1364.92Z" fill="#FDB88E"/>
<path d="M670.738 1366.53C670.738 1366.53 188.841 1330.88 249.861 1151.35C303.976 992.056 688.723 1305.19 688.723 1305.19C700.124 1312.89 682.942 1369.42 670.738 1366.53Z" fill="#016099"/>
<path d="M760.984 1389.33C760.984 1389.33 765.962 1341.16 740.429 1337.94C727.423 1336.34 712.81 1334.73 698.037 1333.29C664.315 1330.08 629.63 1327.67 610.842 1327.02C575.515 1325.9 545.165 1342.12 541.793 1360.43C537.297 1384.51 582.099 1400.57 611.485 1400.25C724.05 1398.8 757.13 1385.8 760.984 1389.33Z" fill="#FDB88E"/>
<path d="M663.994 1330.24C642.637 1328.63 623.207 1327.35 610.842 1327.02C575.515 1325.9 545.165 1342.12 541.793 1360.43C537.297 1384.51 582.099 1400.57 611.485 1400.25C630.754 1400.09 647.775 1399.45 662.709 1398.64L645.688 1395.11C622.886 1395.91 589.325 1387.24 588.201 1367.81C586.434 1340.35 625.134 1331.2 641.192 1332.81L663.994 1330.24Z" fill="#ED715D"/>
<path d="M742.035 1337.94C741.875 1337.94 741.875 1337.94 742.035 1337.94C709.117 1336.18 632.36 1332.32 630.754 1331.84C629.63 1331.52 628.988 1330.56 629.309 1329.43C629.63 1328.47 630.594 1327.83 631.557 1327.99C634.769 1328.47 712.328 1332.48 742.035 1333.93C743.159 1333.93 743.962 1334.89 743.962 1336.02C743.962 1337.14 742.999 1337.94 742.035 1337.94Z" fill="#ED715D"/>
<path d="M635.411 1399.12C633.645 1399.12 632.039 1399.12 630.433 1399.12C629.309 1399.12 628.506 1398.16 628.506 1397.04C628.506 1395.91 629.309 1395.11 630.594 1395.11C655.644 1395.43 700.606 1392.86 760.823 1387.4C761.947 1387.24 762.911 1388.04 763.071 1389.17C763.232 1390.29 762.429 1391.26 761.305 1391.42C721.16 1394.95 667.848 1399.12 635.411 1399.12Z" fill="#ED715D"/>
<path d="M751.67 1397.04C751.67 1397.04 1234.69 1337.94 1166.77 1156.17C1103.5 987.561 730.634 1326.86 730.634 1326.86C719.876 1335.37 739.627 1400.73 751.67 1397.04Z" fill="#016099"/>
<path d="M130.711 1063.03C127.66 1059.02 121.237 1042.16 122.2 1034.93C123.485 1022.57 134.886 1004.26 140.507 1006.99C148.535 1011.01 138.74 1018.87 142.433 1031.88C144.682 1039.75 156.083 1034.61 165.878 1041.19C169.09 1043.44 172.462 1031.08 166.199 1025.94C159.294 1020.32 137.295 1012.93 143.076 1005.06C147.09 999.765 160.739 1011.97 181.294 1013.25C195.746 1014.06 206.504 1034.13 214.212 1036.86C229.628 1042.16 285.991 1025.3 336.734 1019.68C346.69 1018.55 492.335 1017.27 418.308 1080.7C395.185 1100.61 245.686 1078.77 213.57 1078.13C204.899 1078.13 180.17 1077.48 168.768 1076.52C152.389 1075.24 133.602 1066.89 130.711 1063.03Z" fill="#FDB88E"/>
<path d="M188.038 1050.19C181.133 1051.63 172.944 1051.15 167.002 1044.57C166.199 1043.76 166.36 1042.32 167.163 1041.68C167.966 1040.87 169.411 1041.03 170.053 1041.84C179.367 1052.11 194.782 1043.44 195.425 1043.12C196.388 1042.48 197.673 1042.96 198.315 1043.92C198.957 1044.89 198.476 1046.17 197.512 1046.81C195.264 1047.78 191.892 1049.38 188.038 1050.19Z" fill="#ED715D"/>
<path d="M144.842 1051.95C144.36 1052.11 144.039 1051.95 143.558 1051.79C130.069 1046.01 131.514 1028.67 134.244 1020.32C134.565 1019.19 135.85 1018.55 136.813 1019.03C137.937 1019.36 138.58 1020.64 138.098 1021.6C138.098 1021.76 131.675 1042.16 145.003 1047.94C146.127 1048.42 146.609 1049.7 146.127 1050.67C146.127 1051.47 145.485 1051.95 144.842 1051.95Z" fill="#ED715D"/>
<path d="M747.334 679.891C463.11 678.767 490.087 883.184 425.855 945.168C362.105 1006.67 223.044 1030.76 223.044 1030.76C215.818 1032.2 212.285 1082.14 220.314 1086.32C220.314 1086.32 385.389 1141.56 509.356 1082.14C595.587 1040.87 634.929 971.824 647.936 905.023C678.607 749.904 763.553 668.008 747.334 679.891Z" fill="#ED715D"/>
<path d="M1311.13 1063.03C1314.18 1059.02 1320.6 1042.16 1319.64 1034.93C1318.35 1022.57 1306.95 1004.26 1301.33 1006.99C1293.3 1011.01 1303.1 1018.87 1299.4 1031.88C1297.16 1039.75 1285.76 1034.61 1275.96 1041.19C1272.75 1043.44 1269.38 1031.08 1275.64 1025.94C1282.54 1020.32 1304.54 1012.93 1298.76 1005.06C1294.75 999.765 1281.1 1011.97 1260.54 1013.25C1246.09 1014.06 1235.33 1034.13 1227.63 1036.86C1212.21 1042.16 1155.85 1025.3 1105.1 1019.68C1095.15 1018.55 949.503 1017.27 1023.53 1080.7C1046.65 1100.61 1196.15 1078.77 1228.27 1078.13C1236.94 1078.13 1261.67 1077.48 1273.07 1076.52C1289.45 1075.24 1308.24 1066.89 1311.13 1063.03Z" fill="#FDB88E"/>
<path d="M1253.8 1050.19C1260.71 1051.63 1268.89 1051.15 1274.84 1044.57C1275.64 1043.76 1275.48 1042.32 1274.68 1041.68C1273.87 1040.87 1272.43 1041.03 1271.79 1041.84C1262.47 1052.11 1247.06 1043.44 1246.41 1043.12C1245.45 1042.48 1244.17 1042.96 1243.52 1043.92C1242.88 1044.89 1243.36 1046.17 1244.33 1046.81C1246.57 1047.78 1249.95 1049.38 1253.8 1050.19Z" fill="#ED715D"/>
<path d="M1296.84 1051.95C1297.32 1052.11 1297.64 1051.95 1298.12 1051.79C1311.61 1046.01 1310.16 1028.67 1307.43 1020.32C1307.11 1019.19 1305.83 1018.55 1304.86 1019.03C1303.74 1019.36 1303.1 1020.64 1303.58 1021.6C1303.58 1021.76 1310 1042.16 1296.68 1047.94C1295.55 1048.42 1295.07 1049.7 1295.55 1050.67C1295.71 1051.47 1296.19 1051.95 1296.84 1051.95Z" fill="#ED715D"/>
<path d="M694.504 679.891C978.729 678.767 951.751 883.184 1015.98 945.168C1079.73 1006.67 1218.79 1030.76 1218.79 1030.76C1226.02 1032.2 1229.55 1082.14 1221.52 1086.32C1221.52 1086.32 1056.45 1141.56 932.482 1082.14C846.251 1040.87 806.909 971.824 793.902 905.023C763.232 749.904 678.285 668.008 694.504 679.891Z" fill="#ED715D"/>
<path d="M851.068 1068.97C851.068 1068.97 879.33 928.628 865.36 794.866C851.068 658.695 587.558 659.819 575.194 781.859C567.004 862.63 592.055 1072.19 592.055 1072.19C595.748 1086.8 847.536 1088.72 851.068 1068.97Z" fill="#ED715D"/>
<path d="M587.237 1030.92C586.274 1030.92 585.31 1030.11 585.31 1029.15C583.705 1012.13 579.69 994.947 575.836 978.408C566.523 938.745 557.851 901.33 580.814 867.608C581.456 866.645 582.741 866.484 583.544 867.126C584.507 867.769 584.668 869.053 584.026 869.856C562.026 902.133 570.537 938.745 579.69 977.444C583.544 994.144 587.558 1011.33 589.325 1028.67C589.485 1029.79 588.682 1030.76 587.558 1030.92C587.237 1030.92 587.237 1030.92 587.237 1030.92Z" fill="#002869"/>
<path d="M857.17 1030.92H857.01C855.886 1030.76 855.083 1029.79 855.243 1028.67C856.849 1011.33 860.864 994.144 864.878 977.444C873.871 938.745 882.542 902.133 860.542 869.856C859.9 868.893 860.221 867.769 861.024 867.126C861.988 866.484 863.112 866.805 863.754 867.608C886.717 901.33 878.046 938.745 868.732 978.408C864.878 994.947 860.864 1011.97 859.258 1029.15C858.937 1030.11 858.134 1030.92 857.17 1030.92Z" fill="#002869"/>
<path d="M673.468 608.754L669.775 692.577C667.366 714.737 769.815 718.109 773.348 694.182V659.979L673.468 608.754Z" fill="#FDB88E"/>
<path d="M685.993 581.296C685.511 651.147 736.897 669.614 775.757 664.154C802.734 660.3 815.741 626.739 820.558 610.36V610.2C822.967 602.813 824.091 595.105 824.091 587.558C824.091 584.186 823.77 580.974 823.288 577.763C822.967 575.354 822.485 572.946 822.164 570.376C821.682 566.362 821.522 561.866 821.201 556.888C820.398 541.311 817.026 534.728 813.493 529.589C796.471 504.86 773.509 522.524 749.261 482.379C733.685 456.526 686.314 535.852 685.993 581.296Z" fill="#FDB88E"/>
<path d="M742.035 594.302C745.086 606.346 734.167 617.586 721.16 613.893C717.146 612.769 713.934 610.039 712.007 606.346C705.744 594.142 714.897 581.135 727.583 581.938C734.649 582.58 740.429 587.558 742.035 594.302Z" fill="#ED715D"/>
<path d="M806.749 595.748C807.551 603.295 813.332 609.236 820.558 610.2C822.967 602.813 824.091 595.105 824.091 587.558C824.091 584.186 823.77 580.975 823.288 577.763C822.646 577.763 822.004 577.763 821.361 577.763C812.369 578.726 805.785 586.755 806.749 595.748Z" fill="#ED715D"/>
<path d="M766.443 667.848C767.407 667.848 768.049 667.205 768.049 666.242C768.049 665.279 767.407 664.636 766.443 664.636C765.962 664.636 722.123 664.315 701.409 637.82C700.927 637.177 699.803 637.017 699.161 637.498C698.518 637.98 698.358 639.104 698.84 639.746C720.518 667.527 764.677 667.848 766.443 667.848Z" fill="#ED715D"/>
<path d="M799.202 570.376C812.369 570.537 817.668 563.15 817.989 562.829C818.632 562.026 818.31 560.902 817.508 560.26C816.705 559.617 815.581 559.939 814.938 560.741C814.617 561.223 808.194 569.894 790.852 565.559C789.888 565.238 788.925 565.88 788.603 566.843C788.443 567.807 788.925 568.77 789.888 569.091C793.26 569.894 796.472 570.216 799.202 570.376Z" fill="#002869"/>
<path d="M743.962 575.033C752.152 574.712 757.612 571.018 758.093 570.858C758.896 570.376 759.217 569.252 758.575 568.288C758.093 567.485 756.969 567.164 756.006 567.807C755.524 568.128 742.678 576.317 727.905 566.683C727.102 566.201 725.978 566.361 725.335 567.164C724.854 567.967 725.014 569.091 725.817 569.734C732.401 574.069 738.663 575.193 743.962 575.033Z" fill="#002869"/>
<path d="M777.684 608.754C779.771 608.754 781.859 608.433 783.786 607.469C786.997 605.864 789.085 603.134 789.406 599.922C789.888 595.747 787.158 592.696 784.428 589.645C783.144 588.2 781.698 586.594 780.735 584.988C777.523 579.368 776.56 569.573 776.56 569.412C776.399 568.449 775.596 567.646 774.633 567.806C773.669 567.967 772.866 568.77 773.027 569.733C773.027 570.215 774.151 580.332 777.684 586.755C778.808 588.682 780.253 590.448 781.698 592.054C784.107 594.784 786.034 597.032 785.873 599.601C785.552 602.331 783.465 603.616 782.341 604.258C779.45 605.703 775.757 605.543 773.188 603.937C772.385 603.455 771.261 603.616 770.618 604.579C770.137 605.382 770.297 606.506 771.261 607.148C773.188 608.112 775.436 608.754 777.684 608.754Z" fill="#ED715D"/>
<path d="M747.495 424.089C739.305 416.381 613.893 397.272 567.325 524.451C556.245 554.64 467.445 702.854 467.445 702.854C515.298 764.516 603.777 767.246 647.936 735.933C685.672 709.277 709.92 644.243 710.08 574.551C711.686 504.539 779.771 512.247 763.071 477.241C739.306 426.498 747.495 424.089 747.495 424.089Z" fill="#002869"/>
<path d="M777.684 628.987C769.334 628.987 763.232 626.097 762.75 625.936C761.786 625.455 761.305 624.331 761.786 623.207C762.268 622.243 763.392 621.761 764.516 622.243C764.677 622.243 780.092 629.469 793.902 619.995C794.866 619.353 795.99 619.674 796.632 620.477C797.274 621.44 796.953 622.564 796.15 623.207C789.727 627.703 783.304 628.987 777.684 628.987Z" fill="#ED715D"/>
<path d="M1282 1395.05C1282 1426.81 1256.31 1452.55 1224.62 1452.55V1453H980.731C941.11 1453 909 1420.82 909 1381.12C909 1346.31 933.714 1317.28 966.524 1310.68C966.524 1310.21 966.385 1309.76 966.385 1309.25C966.385 1261.6 1004.91 1223 1052.46 1223C1086.03 1223 1114.78 1242.43 1128.98 1270.5C1136.49 1267.87 1144.45 1266.12 1152.88 1266.12C1192.2 1266.12 1224.03 1297.79 1224.53 1337.1H1224.62V1337.55C1256.31 1337.55 1282 1363.3 1282 1395.05Z" fill="url(#paint3_linear)"/>
</g>
<defs>
<linearGradient id="paint0_linear" x1="245" y1="540" x2="245" y2="796" gradientUnits="userSpaceOnUse">
<stop stop-color="#F5F5F5" stop-opacity="0"/>
<stop offset="1" stop-color="#C5CAE9"/>
</linearGradient>
<linearGradient id="paint1_linear" x1="1191.5" y1="679" x2="1191.5" y2="900" gradientUnits="userSpaceOnUse">
<stop stop-color="#F5F5F5" stop-opacity="0"/>
<stop offset="1" stop-color="#C5CAE9"/>
</linearGradient>
<linearGradient id="paint2_linear" x1="1036" y1="765" x2="1036" y2="900" gradientUnits="userSpaceOnUse">
<stop stop-color="#F5F5F5" stop-opacity="0"/>
<stop offset="1" stop-color="#C5CAE9"/>
</linearGradient>
<linearGradient id="paint3_linear" x1="1095.5" y1="1223" x2="1095.5" y2="1453" gradientUnits="userSpaceOnUse">
<stop stop-color="#F5F5F5" stop-opacity="0"/>
<stop offset="1" stop-color="#C5CAE9"/>
</linearGradient>
<clipPath id="clip0">
<rect width="1440" height="1496" fill="white"/>
</clipPath>
</defs>
</svg>
