<svg width="1440" height="1496" viewBox="0 0 1440 1496" fill="none" xmlns="http://www.w3.org/2000/svg">
<g clip-path="url(#clip0)">
<path d="M453 731.5C453 766.844 424.344 795.5 389 795.5V796H117C72.812 796 37 760.187 37 716C37 677.25 64.563 644.937 101.156 637.594C101.156 637.063 101 636.563 101 636C101 582.969 143.969 540 197 540C234.438 540 266.5 561.625 282.344 592.875C290.719 589.937 299.594 588 309 588C352.844 588 388.344 623.25 388.906 667H389V667.5C424.344 667.5 453 696.156 453 731.5Z" fill="white"/>
<path d="M1375 1232.5C1375 1267.84 1346.34 1296.5 1311 1296.5V1297H1039C994.812 1297 959 1261.19 959 1217C959 1178.25 986.563 1145.94 1023.16 1138.59C1023.16 1138.06 1023 1137.56 1023 1137C1023 1083.97 1065.97 1041 1119 1041C1156.44 1041 1188.5 1062.62 1204.34 1093.88C1212.72 1090.94 1221.59 1089 1231 1089C1274.84 1089 1310.34 1124.25 1310.91 1168H1311V1168.5C1346.34 1168.5 1375 1197.16 1375 1232.5Z" fill="white"/>
<path d="M1260.71 255.802C1209.64 331.756 1261.99 424.25 1068.97 544.684C979.211 600.565 1028.83 700.606 899.242 743.641C892.177 745.889 705.263 739.948 705.102 740.108C704.46 740.429 703.818 740.59 703.175 740.911C682.461 748.78 668.972 728.225 659.819 730.795C514.495 772.064 473.387 725.335 435.811 652.753C370.777 527.341 247.452 557.37 217.745 405.622C199.921 314.574 193.337 265.116 106.785 199.439C26.9773 138.901 9.47416 59.7354 0 0H1440.55C1440.55 162.185 1315.3 174.389 1260.71 255.802Z" fill="#002869"/>
<path d="M672.504 1358.02C802.413 1371.02 1147.5 1127.26 1147.5 1127.26C1081.5 1066.73 723.568 1158.9 723.568 1158.9C704.62 1165.16 661.424 1353.52 672.504 1358.02Z" fill="#002869"/>
<path d="M756.327 1356.09C626.579 1369.1 268.167 1123.89 268.167 1123.89C369.492 1067.69 705.423 1156.97 705.423 1156.97C724.211 1163.23 767.407 1351.43 756.327 1356.09Z" fill="#002869"/>
<path d="M926.862 1195.19C926.862 1195.19 891.695 1130.15 850.908 1068.81C769.334 1078.29 672.023 1081.02 591.894 1072.03C591.894 1072.03 534.567 1145.41 525.093 1192.94C516.101 1238.71 884.951 1281.1 926.862 1195.19Z" fill="#002869"/>
<path d="M660.461 1364.92C660.461 1364.92 654.68 1316.75 679.088 1313.21C719.875 1307.11 776.881 1301.65 802.574 1300.37C836.295 1298.76 865.521 1314.5 869.053 1332.81C873.71 1356.73 831.478 1373.43 803.376 1373.59C695.949 1373.91 664.155 1361.39 660.461 1364.92Z" fill="#FDB88E"/>
<path d="M670.738 1366.53C670.738 1366.53 188.841 1330.88 249.861 1151.35C303.976 992.056 688.723 1305.19 688.723 1305.19C700.124 1312.89 682.942 1369.42 670.738 1366.53Z" fill="#016099"/>
<path d="M760.984 1389.33C760.984 1389.33 765.962 1341.16 740.429 1337.94C727.423 1336.34 712.81 1334.73 698.037 1333.29C664.315 1330.08 629.63 1327.67 610.842 1327.02C575.515 1325.9 545.165 1342.12 541.793 1360.43C537.297 1384.51 582.099 1400.57 611.485 1400.25C724.05 1398.8 757.13 1385.8 760.984 1389.33Z" fill="#FDB88E"/>
<path d="M663.994 1330.24C642.637 1328.63 623.207 1327.35 610.842 1327.02C575.515 1325.9 545.165 1342.12 541.793 1360.43C537.297 1384.51 582.099 1400.57 611.485 1400.25C630.754 1400.09 647.775 1399.45 662.709 1398.64L645.688 1395.11C622.886 1395.91 589.325 1387.24 588.201 1367.81C586.434 1340.35 625.134 1331.2 641.192 1332.81L663.994 1330.24Z" fill="#ED715D"/>
<path d="M742.035 1337.94C741.875 1337.94 741.875 1337.94 742.035 1337.94C709.117 1336.18 632.36 1332.32 630.754 1331.84C629.63 1331.52 628.988 1330.56 629.309 1329.43C629.63 1328.47 630.594 1327.83 631.557 1327.99C634.769 1328.47 712.328 1332.48 742.035 1333.93C743.159 1333.93 743.962 1334.89 743.962 1336.02C743.962 1337.14 742.999 1337.94 742.035 1337.94Z" fill="#ED715D"/>
<path d="M635.411 1399.12C633.645 1399.12 632.039 1399.12 630.433 1399.12C629.309 1399.12 628.506 1398.16 628.506 1397.04C628.506 1395.91 629.309 1395.11 630.594 1395.11C655.644 1395.43 700.606 1392.86 760.823 1387.4C761.947 1387.24 762.911 1388.04 763.071 1389.17C763.232 1390.29 762.429 1391.26 761.305 1391.42C721.16 1394.95 667.848 1399.12 635.411 1399.12Z" fill="#ED715D"/>
<path d="M751.67 1397.04C751.67 1397.04 1234.69 1337.94 1166.77 1156.17C1103.5 987.561 730.634 1326.86 730.634 1326.86C719.876 1335.37 739.627 1400.73 751.67 1397.04Z" fill="#016099"/>
<path d="M130.711 1063.03C127.66 1059.02 121.237 1042.16 122.2 1034.93C123.485 1022.57 134.886 1004.26 140.507 1006.99C148.535 1011.01 138.74 1018.87 142.433 1031.88C144.682 1039.75 156.083 1034.61 165.878 1041.19C169.09 1043.44 172.462 1031.08 166.199 1025.94C159.294 1020.32 137.295 1012.93 143.076 1005.06C147.09 999.765 160.739 1011.97 181.294 1013.25C195.746 1014.06 206.504 1034.13 214.212 1036.86C229.628 1042.16 285.991 1025.3 336.734 1019.68C346.69 1018.55 492.335 1017.27 418.308 1080.7C395.185 1100.61 245.686 1078.77 213.57 1078.13C204.899 1078.13 180.17 1077.48 168.768 1076.52C152.389 1075.24 133.602 1066.89 130.711 1063.03Z" fill="#FDB88E"/>
<path d="M188.038 1050.19C181.133 1051.63 172.944 1051.15 167.002 1044.57C166.199 1043.76 166.36 1042.32 167.163 1041.68C167.966 1040.87 169.411 1041.03 170.053 1041.84C179.367 1052.11 194.782 1043.44 195.425 1043.12C196.388 1042.48 197.673 1042.96 198.315 1043.92C198.957 1044.89 198.476 1046.17 197.512 1046.81C195.264 1047.78 191.892 1049.38 188.038 1050.19Z" fill="#ED715D"/>
<path d="M144.842 1051.95C144.36 1052.11 144.039 1051.95 143.558 1051.79C130.069 1046.01 131.514 1028.67 134.244 1020.32C134.565 1019.19 135.85 1018.55 136.813 1019.03C137.937 1019.36 138.58 1020.64 138.098 1021.6C138.098 1021.76 131.675 1042.16 145.003 1047.94C146.127 1048.42 146.609 1049.7 146.127 1050.67C146.127 1051.47 145.485 1051.95 144.842 1051.95Z" fill="#ED715D"/>
<path d="M747.334 679.891C463.11 678.767 490.087 883.184 425.855 945.168C362.105 1006.67 223.044 1030.76 223.044 1030.76C215.818 1032.2 212.285 1082.14 220.314 1086.32C220.314 1086.32 385.389 1141.56 509.356 1082.14C595.587 1040.87 634.929 971.824 647.936 905.023C678.607 749.904 763.553 668.008 747.334 679.891Z" fill="#ED715D"/>
<path d="M1311.13 1063.03C1314.18 1059.02 1320.6 1042.16 1319.64 1034.93C1318.35 1022.57 1306.95 1004.26 1301.33 1006.99C1293.3 1011.01 1303.1 1018.87 1299.4 1031.88C1297.16 1039.75 1285.76 1034.61 1275.96 1041.19C1272.75 1043.44 1269.38 1031.08 1275.64 1025.94C1282.54 1020.32 1304.54 1012.93 1298.76 1005.06C1294.75 999.765 1281.1 1011.97 1260.54 1013.25C1246.09 1014.06 1235.33 1034.13 1227.63 1036.86C1212.21 1042.16 1155.85 1025.3 1105.1 1019.68C1095.15 1018.55 949.503 1017.27 1023.53 1080.7C1046.65 1100.61 1196.15 1078.77 1228.27 1078.13C1236.94 1078.13 1261.67 1077.48 1273.07 1076.52C1289.45 1075.24 1308.24 1066.89 1311.13 1063.03Z" fill="#FDB88E"/>
<path d="M1253.8 1050.19C1260.71 1051.63 1268.89 1051.15 1274.84 1044.57C1275.64 1043.76 1275.48 1042.32 1274.68 1041.68C1273.87 1040.87 1272.43 1041.03 1271.79 1041.84C1262.47 1052.11 1247.06 1043.44 1246.41 1043.12C1245.45 1042.48 1244.17 1042.96 1243.52 1043.92C1242.88 1044.89 1243.36 1046.17 1244.33 1046.81C1246.57 1047.78 1249.95 1049.38 1253.8 1050.19Z" fill="#ED715D"/>
<path d="M1296.84 1051.95C1297.32 1052.11 1297.64 1051.95 1298.12 1051.79C1311.61 1046.01 1310.16 1028.67 1307.43 1020.32C1307.11 1019.19 1305.83 1018.55 1304.86 1019.03C1303.74 1019.36 1303.1 1020.64 1303.58 1021.6C1303.58 1021.76 1310 1042.16 1296.68 1047.94C1295.55 1048.42 1295.07 1049.7 1295.55 1050.67C1295.71 1051.47 1296.19 1051.95 1296.84 1051.95Z" fill="#ED715D"/>
<path d="M694.504 679.891C978.729 678.767 951.751 883.184 1015.98 945.168C1079.73 1006.67 1218.79 1030.76 1218.79 1030.76C1226.02 1032.2 1229.55 1082.14 1221.52 1086.32C1221.52 1086.32 1056.45 1141.56 932.482 1082.14C846.251 1040.87 806.909 971.824 793.902 905.023C763.232 749.904 678.285 668.008 694.504 679.891Z" fill="#ED715D"/>
<path d="M851.068 1068.97C851.068 1068.97 879.33 928.628 865.36 794.866C851.068 658.695 587.558 659.819 575.194 781.859C567.004 862.63 592.055 1072.19 592.055 1072.19C595.748 1086.8 847.536 1088.72 851.068 1068.97Z" fill="#ED715D"/>
<path d="M587.237 1030.92C586.274 1030.92 585.31 1030.11 585.31 1029.15C583.705 1012.13 579.69 994.947 575.836 978.408C566.523 938.745 557.851 901.33 580.814 867.608C581.456 866.645 582.741 866.484 583.544 867.126C584.507 867.769 584.668 869.053 584.026 869.856C562.026 902.133 570.537 938.745 579.69 977.444C583.544 994.144 587.558 1011.33 589.325 1028.67C589.485 1029.79 588.682 1030.76 587.558 1030.92C587.237 1030.92 587.237 1030.92 587.237 1030.92Z" fill="#002869"/>
<path d="M857.17 1030.92H857.01C855.886 1030.76 855.083 1029.79 855.243 1028.67C856.849 1011.33 860.864 994.144 864.878 977.444C873.871 938.745 882.542 902.133 860.542 869.856C859.9 868.893 860.221 867.769 861.024 867.126C861.988 866.484 863.112 866.805 863.754 867.608C886.717 901.33 878.046 938.745 868.732 978.408C864.878 994.947 860.864 1011.97 859.258 1029.15C858.937 1030.11 858.134 1030.92 857.17 1030.92Z" fill="#002869"/>
<path d="M673.468 608.754L669.775 692.577C667.366 714.737 769.815 718.109 773.348 694.182V659.979L673.468 608.754Z" fill="#FDB88E"/>
<path d="M685.993 581.296C685.511 651.147 736.897 669.614 775.757 664.154C802.734 660.3 815.741 626.739 820.558 610.36V610.2C822.967 602.813 824.091 595.105 824.091 587.558C824.091 584.186 823.77 580.974 823.288 577.763C822.967 575.354 822.485 572.946 822.164 570.376C821.682 566.362 821.522 561.866 821.201 556.888C820.398 541.311 817.026 534.728 813.493 529.589C796.471 504.86 773.509 522.524 749.261 482.379C733.685 456.526 686.314 535.852 685.993 581.296Z" fill="#FDB88E"/>
<path d="M742.035 594.302C745.086 606.346 734.167 617.586 721.16 613.893C717.146 612.769 713.934 610.039 712.007 606.346C705.744 594.142 714.897 581.135 727.583 581.938C734.649 582.58 740.429 587.558 742.035 594.302Z" fill="#ED715D"/>
<path d="M806.749 595.748C807.551 603.295 813.332 609.236 820.558 610.2C822.967 602.813 824.091 595.105 824.091 587.558C824.091 584.186 823.77 580.975 823.288 577.763C822.646 577.763 822.004 577.763 821.361 577.763C812.369 578.726 805.785 586.755 806.749 595.748Z" fill="#ED715D"/>
<path d="M766.443 667.848C767.407 667.848 768.049 667.205 768.049 666.242C768.049 665.279 767.407 664.636 766.443 664.636C765.962 664.636 722.123 664.315 701.409 637.82C700.927 637.177 699.803 637.017 699.161 637.498C698.518 637.98 698.358 639.104 698.84 639.746C720.518 667.527 764.677 667.848 766.443 667.848Z" fill="#ED715D"/>
<path d="M799.202 570.376C812.369 570.537 817.668 563.15 817.989 562.829C818.632 562.026 818.31 560.902 817.508 560.26C816.705 559.617 815.581 559.939 814.938 560.741C814.617 561.223 808.194 569.894 790.852 565.559C789.888 565.238 788.925 565.88 788.603 566.843C788.443 567.807 788.925 568.77 789.888 569.091C793.26 569.894 796.472 570.216 799.202 570.376Z" fill="#002869"/>
<path d="M743.962 575.033C752.152 574.712 757.612 571.018 758.093 570.858C758.896 570.376 759.217 569.252 758.575 568.288C758.093 567.485 756.969 567.164 756.006 567.807C755.524 568.128 742.678 576.317 727.905 566.683C727.102 566.201 725.978 566.361 725.335 567.164C724.854 567.967 725.014 569.091 725.817 569.734C732.401 574.069 738.663 575.193 743.962 575.033Z" fill="#002869"/>
<path d="M777.684 608.754C779.771 608.754 781.859 608.433 783.786 607.469C786.997 605.864 789.085 603.134 789.406 599.922C789.888 595.747 787.158 592.696 784.428 589.645C783.144 588.2 781.698 586.594 780.735 584.988C777.523 579.368 776.56 569.573 776.56 569.412C776.399 568.449 775.596 567.646 774.633 567.806C773.669 567.967 772.866 568.77 773.027 569.733C773.027 570.215 774.151 580.332 777.684 586.755C778.808 588.682 780.253 590.448 781.698 592.054C784.107 594.784 786.034 597.032 785.873 599.601C785.552 602.331 783.465 603.616 782.341 604.258C779.45 605.703 775.757 605.543 773.188 603.937C772.385 603.455 771.261 603.616 770.618 604.579C770.137 605.382 770.297 606.506 771.261 607.148C773.188 608.112 775.436 608.754 777.684 608.754Z" fill="#ED715D"/>
<path d="M747.495 424.089C739.305 416.381 613.893 397.272 567.325 524.451C556.245 554.64 467.445 702.854 467.445 702.854C515.298 764.516 603.777 767.246 647.936 735.933C685.672 709.277 709.92 644.243 710.08 574.551C711.686 504.539 779.771 512.247 763.071 477.241C739.306 426.498 747.495 424.089 747.495 424.089Z" fill="#002869"/>
<path d="M777.684 628.987C769.334 628.987 763.232 626.097 762.75 625.936C761.786 625.455 761.305 624.331 761.786 623.207C762.268 622.243 763.392 621.761 764.516 622.243C764.677 622.243 780.092 629.469 793.902 619.995C794.866 619.353 795.99 619.674 796.632 620.477C797.274 621.44 796.953 622.564 796.15 623.207C789.727 627.703 783.304 628.987 777.684 628.987Z" fill="#ED715D"/>
</g>
<path d="M436.491 197.88C438.171 197.88 439.515 198.384 440.523 199.392C441.531 200.4 442.035 201.744 442.035 203.424V243.816C442.035 245.496 441.531 246.864 440.523 247.92C439.515 248.928 438.171 249.432 436.491 249.432C434.811 249.432 433.467 248.928 432.459 247.92C431.499 246.912 431.019 245.544 431.019 243.816V227.688H407.619V243.816C407.619 245.496 407.115 246.864 406.107 247.92C405.099 248.928 403.779 249.432 402.146 249.432C400.467 249.432 399.123 248.928 398.115 247.92C397.107 246.912 396.603 245.544 396.603 243.816V203.424C396.603 201.744 397.107 200.4 398.115 199.392C399.123 198.384 400.467 197.88 402.146 197.88C403.827 197.88 405.147 198.384 406.107 199.392C407.115 200.4 407.619 201.744 407.619 203.424V218.76H431.019V203.424C431.019 201.744 431.499 200.4 432.459 199.392C433.467 198.384 434.811 197.88 436.491 197.88ZM467.277 249.576C463.533 249.576 460.245 248.832 457.413 247.344C454.581 245.808 452.397 243.672 450.861 240.936C449.325 238.152 448.557 234.888 448.557 231.144C448.557 227.4 449.325 224.16 450.861 221.424C452.397 218.64 454.581 216.504 457.413 215.016C460.245 213.528 463.533 212.784 467.277 212.784C471.021 212.784 474.309 213.528 477.141 215.016C479.973 216.504 482.157 218.64 483.693 221.424C485.229 224.16 485.997 227.4 485.997 231.144C485.997 234.888 485.229 238.152 483.693 240.936C482.157 243.672 479.973 245.808 477.141 247.344C474.309 248.832 471.021 249.576 467.277 249.576ZM467.277 241.296C472.557 241.296 475.197 237.912 475.197 231.144C475.197 227.736 474.501 225.192 473.109 223.512C471.765 221.832 469.821 220.992 467.277 220.992C461.997 220.992 459.357 224.376 459.357 231.144C459.357 237.912 461.997 241.296 467.277 241.296ZM538.43 216.096C538.862 215.088 539.462 214.32 540.23 213.792C540.998 213.264 541.814 213 542.678 213C544.022 213 545.222 213.456 546.278 214.368C547.334 215.28 547.862 216.408 547.862 217.752C547.862 218.328 547.718 218.976 547.43 219.696L535.622 246.192C535.19 247.248 534.494 248.064 533.534 248.64C532.574 249.168 531.566 249.432 530.51 249.432C529.406 249.432 528.374 249.168 527.414 248.64C526.502 248.064 525.83 247.248 525.398 246.192L517.694 228.264L510.278 246.192C509.846 247.248 509.174 248.064 508.262 248.64C507.35 249.168 506.318 249.432 505.166 249.432C504.062 249.432 503.03 249.168 502.07 248.64C501.11 248.064 500.414 247.248 499.982 246.192L488.246 219.696C487.958 219.024 487.814 218.376 487.814 217.752C487.814 216.408 488.366 215.28 489.47 214.368C490.622 213.456 491.918 213 493.358 213C494.318 213 495.182 213.264 495.95 213.792C496.766 214.32 497.39 215.088 497.822 216.096L505.526 235.464L513.374 216.24C513.806 215.232 514.43 214.464 515.246 213.936C516.11 213.36 517.046 213.072 518.054 213.072C519.062 213.072 519.998 213.336 520.862 213.864C521.726 214.392 522.374 215.184 522.806 216.24L530.798 235.464L538.43 216.096ZM618.696 216.096C619.128 215.088 619.728 214.32 620.496 213.792C621.264 213.264 622.08 213 622.944 213C624.288 213 625.488 213.456 626.544 214.368C627.6 215.28 628.128 216.408 628.128 217.752C628.128 218.328 627.984 218.976 627.696 219.696L615.888 246.192C615.456 247.248 614.76 248.064 613.8 248.64C612.84 249.168 611.832 249.432 610.776 249.432C609.672 249.432 608.64 249.168 607.68 248.64C606.768 248.064 606.096 247.248 605.664 246.192L597.96 228.264L590.544 246.192C590.112 247.248 589.44 248.064 588.528 248.64C587.616 249.168 586.584 249.432 585.432 249.432C584.328 249.432 583.296 249.168 582.336 248.64C581.376 248.064 580.68 247.248 580.248 246.192L568.512 219.696C568.224 219.024 568.08 218.376 568.08 217.752C568.08 216.408 568.632 215.28 569.736 214.368C570.888 213.456 572.184 213 573.624 213C574.584 213 575.448 213.264 576.216 213.792C577.032 214.32 577.656 215.088 578.088 216.096L585.792 235.464L593.64 216.24C594.072 215.232 594.696 214.464 595.512 213.936C596.376 213.36 597.312 213.072 598.32 213.072C599.328 213.072 600.264 213.336 601.128 213.864C601.992 214.392 602.64 215.184 603.072 216.24L611.064 235.464L618.696 216.096ZM659.997 238.488C660.957 238.488 661.725 238.872 662.301 239.64C662.925 240.408 663.237 241.392 663.237 242.592C663.237 243.408 662.997 244.176 662.517 244.896C662.037 245.568 661.365 246.144 660.501 246.624C658.869 247.488 656.973 248.208 654.813 248.784C652.653 249.312 650.661 249.576 648.837 249.576C644.997 249.576 641.637 248.832 638.757 247.344C635.925 245.856 633.741 243.744 632.205 241.008C630.669 238.224 629.901 234.96 629.901 231.216C629.901 227.616 630.645 224.424 632.133 221.64C633.621 218.856 635.685 216.696 638.325 215.16C640.965 213.576 643.965 212.784 647.325 212.784C650.541 212.784 653.349 213.504 655.749 214.944C658.197 216.336 660.093 218.352 661.437 220.992C662.781 223.584 663.453 226.632 663.453 230.136C663.453 231.192 663.189 232.008 662.661 232.584C662.181 233.112 661.485 233.376 660.573 233.376H640.413C640.749 236.208 641.613 238.272 643.005 239.568C644.397 240.816 646.389 241.44 648.981 241.44C650.373 241.44 651.621 241.272 652.725 240.936C653.829 240.6 655.053 240.144 656.397 239.568C657.069 239.28 657.717 239.04 658.341 238.848C658.965 238.608 659.517 238.488 659.997 238.488ZM647.613 220.272C645.549 220.272 643.893 220.944 642.645 222.288C641.397 223.584 640.653 225.48 640.413 227.976H654.309C654.165 225.432 653.517 223.512 652.365 222.216C651.261 220.92 649.677 220.272 647.613 220.272ZM704.041 212.784C709.225 212.784 713.065 214.056 715.561 216.6C718.057 219.096 719.305 222.936 719.305 228.12V244.392C719.305 245.976 718.849 247.224 717.937 248.136C717.025 249 715.753 249.432 714.121 249.432C712.585 249.432 711.337 248.976 710.377 248.064C709.465 247.104 709.009 245.88 709.009 244.392V243.888C708.289 245.664 707.089 247.056 705.409 248.064C703.729 249.072 701.761 249.576 699.505 249.576C697.105 249.576 694.921 249.096 692.953 248.136C691.033 247.176 689.497 245.832 688.345 244.104C687.241 242.376 686.689 240.456 686.689 238.344C686.689 235.752 687.337 233.712 688.633 232.224C689.977 230.736 692.113 229.656 695.041 228.984C697.969 228.312 701.977 227.976 707.065 227.976H708.937V226.68C708.937 224.664 708.481 223.2 707.569 222.288C706.705 221.376 705.241 220.92 703.177 220.92C701.113 220.92 698.137 221.64 694.249 223.08C693.145 223.608 692.209 223.872 691.441 223.872C690.385 223.872 689.545 223.512 688.921 222.792C688.297 222.024 687.985 221.04 687.985 219.84C687.985 218.88 688.201 218.088 688.633 217.464C689.065 216.84 689.761 216.264 690.721 215.736C692.401 214.824 694.441 214.104 696.841 213.576C699.289 213.048 701.689 212.784 704.041 212.784ZM701.881 242.088C703.993 242.088 705.697 241.392 706.993 240C708.289 238.56 708.937 236.712 708.937 234.456V233.232H707.713C703.825 233.232 701.089 233.544 699.505 234.168C697.969 234.792 697.201 235.92 697.201 237.552C697.201 238.896 697.633 240 698.497 240.864C699.409 241.68 700.537 242.088 701.881 242.088ZM739.826 249.576C736.898 249.576 734.354 249.336 732.194 248.856C730.034 248.376 728.138 247.608 726.506 246.552C725.786 246.12 725.234 245.544 724.85 244.824C724.466 244.104 724.274 243.288 724.274 242.376C724.274 241.272 724.586 240.36 725.21 239.64C725.834 238.872 726.602 238.488 727.514 238.488C728.138 238.488 728.762 238.608 729.386 238.848C730.01 239.04 730.658 239.28 731.33 239.568C732.674 240.192 733.994 240.696 735.29 241.08C736.586 241.416 738.194 241.584 740.114 241.584C741.794 241.584 743.09 241.32 744.002 240.792C744.962 240.264 745.442 239.544 745.442 238.632C745.442 237.96 745.226 237.432 744.794 237.048C744.41 236.616 743.666 236.232 742.562 235.896C741.458 235.56 739.706 235.152 737.306 234.672C733.034 233.856 729.962 232.632 728.09 231C726.218 229.368 725.282 227.088 725.282 224.16C725.282 222 725.93 220.056 727.226 218.328C728.57 216.6 730.394 215.256 732.698 214.296C735.002 213.288 737.594 212.784 740.474 212.784C742.538 212.784 744.554 213.048 746.522 213.576C748.49 214.104 750.242 214.848 751.778 215.808C753.266 216.72 754.01 218.064 754.01 219.84C754.01 220.992 753.698 221.952 753.074 222.72C752.45 223.488 751.682 223.872 750.77 223.872C749.666 223.872 748.346 223.44 746.81 222.576C745.61 221.952 744.506 221.496 743.498 221.208C742.538 220.872 741.386 220.704 740.042 220.704C738.554 220.704 737.378 220.992 736.514 221.568C735.65 222.096 735.218 222.84 735.218 223.8C735.218 224.808 735.722 225.576 736.73 226.104C737.738 226.632 739.682 227.16 742.562 227.688C745.778 228.312 748.298 229.08 750.122 229.992C751.946 230.856 753.266 231.96 754.082 233.304C754.898 234.648 755.306 236.352 755.306 238.416C755.306 241.824 753.89 244.536 751.058 246.552C748.274 248.568 744.53 249.576 739.826 249.576ZM793.856 240.576C794.96 241.632 795.512 242.832 795.512 244.176C795.512 245.52 795.008 246.72 794 247.776C793.04 248.832 791.912 249.36 790.616 249.36C789.368 249.36 788.216 248.856 787.16 247.848L771.392 233.232V244.248C771.392 245.928 770.864 247.2 769.808 248.064C768.8 248.928 767.528 249.36 765.992 249.36C764.408 249.36 763.088 248.928 762.032 248.064C761.024 247.2 760.52 245.928 760.52 244.248V202.992C760.52 201.312 761.024 200.04 762.032 199.176C763.088 198.312 764.408 197.88 765.992 197.88C767.528 197.88 768.8 198.312 769.808 199.176C770.864 200.04 771.392 201.312 771.392 202.992V228.768L785.792 214.584C786.848 213.528 788.024 213 789.32 213C790.664 213 791.84 213.504 792.848 214.512C793.856 215.472 794.36 216.624 794.36 217.968C794.36 219.216 793.808 220.392 792.704 221.496L783.128 230.64L793.856 240.576ZM858.882 220.992C860.226 220.992 861.282 221.376 862.05 222.144C862.866 222.864 863.274 223.872 863.274 225.168V239.208C863.274 241.128 863.106 242.616 862.77 243.672C862.482 244.728 861.954 245.568 861.186 246.192C860.418 246.816 859.266 247.344 857.73 247.776C855.858 248.352 853.698 248.808 851.25 249.144C848.85 249.48 846.57 249.648 844.41 249.648C839.034 249.648 834.378 248.616 830.442 246.552C826.506 244.44 823.482 241.44 821.37 237.552C819.258 233.616 818.202 228.96 818.202 223.584C818.202 218.304 819.234 213.72 821.298 209.832C823.41 205.896 826.41 202.872 830.298 200.76C834.186 198.648 838.722 197.592 843.906 197.592C850.578 197.592 856.098 199.32 860.466 202.776C861.186 203.352 861.69 203.928 861.978 204.504C862.266 205.08 862.41 205.8 862.41 206.664C862.41 207.912 862.05 208.992 861.33 209.904C860.658 210.768 859.842 211.2 858.882 211.2C858.258 211.2 857.682 211.104 857.154 210.912C856.674 210.72 856.074 210.408 855.354 209.976C853.338 208.728 851.49 207.84 849.81 207.312C848.13 206.784 846.282 206.52 844.266 206.52C834.474 206.52 829.578 212.208 829.578 223.584C829.578 229.44 830.85 233.808 833.394 236.688C835.938 239.568 839.778 241.008 844.914 241.008C847.698 241.008 850.458 240.648 853.194 239.928V228.768H846.57C845.178 228.768 844.098 228.432 843.33 227.76C842.562 227.088 842.178 226.128 842.178 224.88C842.178 223.632 842.562 222.672 843.33 222C844.098 221.328 845.178 220.992 846.57 220.992H858.882ZM887.926 249.576C884.182 249.576 880.894 248.832 878.062 247.344C875.23 245.808 873.046 243.672 871.51 240.936C869.974 238.152 869.206 234.888 869.206 231.144C869.206 227.4 869.974 224.16 871.51 221.424C873.046 218.64 875.23 216.504 878.062 215.016C880.894 213.528 884.182 212.784 887.926 212.784C891.67 212.784 894.958 213.528 897.79 215.016C900.622 216.504 902.806 218.64 904.342 221.424C905.878 224.16 906.646 227.4 906.646 231.144C906.646 234.888 905.878 238.152 904.342 240.936C902.806 243.672 900.622 245.808 897.79 247.344C894.958 248.832 891.67 249.576 887.926 249.576ZM887.926 241.296C893.206 241.296 895.846 237.912 895.846 231.144C895.846 227.736 895.15 225.192 893.758 223.512C892.414 221.832 890.47 220.992 887.926 220.992C882.646 220.992 880.006 224.376 880.006 231.144C880.006 237.912 882.646 241.296 887.926 241.296ZM929.254 249.576C925.51 249.576 922.222 248.832 919.39 247.344C916.558 245.808 914.374 243.672 912.838 240.936C911.302 238.152 910.534 234.888 910.534 231.144C910.534 227.4 911.302 224.16 912.838 221.424C914.374 218.64 916.558 216.504 919.39 215.016C922.222 213.528 925.51 212.784 929.254 212.784C932.998 212.784 936.286 213.528 939.118 215.016C941.95 216.504 944.134 218.64 945.67 221.424C947.206 224.16 947.974 227.4 947.974 231.144C947.974 234.888 947.206 238.152 945.67 240.936C944.134 243.672 941.95 245.808 939.118 247.344C936.286 248.832 932.998 249.576 929.254 249.576ZM929.254 241.296C934.534 241.296 937.174 237.912 937.174 231.144C937.174 227.736 936.478 225.192 935.086 223.512C933.742 221.832 931.798 220.992 929.254 220.992C923.974 220.992 921.334 224.376 921.334 231.144C921.334 237.912 923.974 241.296 929.254 241.296ZM984.262 212.928C985.894 212.928 987.19 213.408 988.15 214.368C989.158 215.28 989.662 216.504 989.662 218.04V245.184C989.662 250.896 988.006 255.216 984.694 258.144C981.382 261.072 976.534 262.536 970.15 262.536C964.774 262.536 960.358 261.576 956.902 259.656C956.038 259.176 955.366 258.576 954.886 257.856C954.406 257.184 954.166 256.416 954.166 255.552C954.166 254.352 954.454 253.368 955.03 252.6C955.606 251.832 956.374 251.448 957.334 251.448C957.862 251.448 958.486 251.544 959.206 251.736C959.926 251.976 960.67 252.24 961.438 252.528C962.974 253.104 964.39 253.56 965.686 253.896C966.982 254.232 968.374 254.4 969.862 254.4C972.934 254.4 975.214 253.704 976.702 252.312C978.19 250.92 978.934 248.808 978.934 245.976V242.088C977.926 243.912 976.414 245.352 974.398 246.408C972.382 247.464 970.126 247.992 967.63 247.992C964.558 247.992 961.822 247.272 959.422 245.832C957.07 244.392 955.222 242.352 953.878 239.712C952.534 237.024 951.862 233.928 951.862 230.424C951.862 226.92 952.534 223.848 953.878 221.208C955.222 218.52 957.07 216.456 959.422 215.016C961.822 213.528 964.558 212.784 967.63 212.784C970.078 212.784 972.286 213.312 974.254 214.368C976.27 215.376 977.806 216.792 978.862 218.616V217.896C978.862 216.36 979.342 215.16 980.302 214.296C981.31 213.384 982.63 212.928 984.262 212.928ZM970.798 239.712C973.342 239.712 975.31 238.896 976.702 237.264C978.142 235.632 978.862 233.352 978.862 230.424C978.862 227.496 978.142 225.216 976.702 223.584C975.31 221.904 973.342 221.064 970.798 221.064C968.254 221.064 966.262 221.904 964.822 223.584C963.382 225.216 962.662 227.496 962.662 230.424C962.662 233.352 963.382 235.632 964.822 237.264C966.262 238.896 968.254 239.712 970.798 239.712ZM1002.5 249.432C1000.92 249.432 999.596 249 998.54 248.136C997.532 247.272 997.028 246 997.028 244.32V202.992C997.028 201.312 997.532 200.04 998.54 199.176C999.596 198.312 1000.92 197.88 1002.5 197.88C1004.04 197.88 1005.31 198.312 1006.32 199.176C1007.37 200.04 1007.9 201.312 1007.9 202.992V244.32C1007.9 246 1007.37 247.272 1006.32 248.136C1005.31 249 1004.04 249.432 1002.5 249.432ZM1043.59 238.488C1044.55 238.488 1045.32 238.872 1045.89 239.64C1046.52 240.408 1046.83 241.392 1046.83 242.592C1046.83 243.408 1046.59 244.176 1046.11 244.896C1045.63 245.568 1044.96 246.144 1044.09 246.624C1042.46 247.488 1040.57 248.208 1038.41 248.784C1036.25 249.312 1034.25 249.576 1032.43 249.576C1028.59 249.576 1025.23 248.832 1022.35 247.344C1019.52 245.856 1017.33 243.744 1015.8 241.008C1014.26 238.224 1013.49 234.96 1013.49 231.216C1013.49 227.616 1014.24 224.424 1015.73 221.64C1017.21 218.856 1019.28 216.696 1021.92 215.16C1024.56 213.576 1027.56 212.784 1030.92 212.784C1034.13 212.784 1036.94 213.504 1039.34 214.944C1041.79 216.336 1043.69 218.352 1045.03 220.992C1046.37 223.584 1047.05 226.632 1047.05 230.136C1047.05 231.192 1046.78 232.008 1046.25 232.584C1045.77 233.112 1045.08 233.376 1044.17 233.376H1024.01C1024.34 236.208 1025.21 238.272 1026.6 239.568C1027.99 240.816 1029.98 241.44 1032.57 241.44C1033.97 241.44 1035.21 241.272 1036.32 240.936C1037.42 240.6 1038.65 240.144 1039.99 239.568C1040.66 239.28 1041.31 239.04 1041.93 238.848C1042.56 238.608 1043.11 238.488 1043.59 238.488ZM1031.21 220.272C1029.14 220.272 1027.49 220.944 1026.24 222.288C1024.99 223.584 1024.25 225.48 1024.01 227.976H1037.9C1037.76 225.432 1037.11 223.512 1035.96 222.216C1034.85 220.92 1033.27 220.272 1031.21 220.272ZM599.252 302.16C597.284 302.304 595.868 302.904 595.004 303.96C594.14 305.016 593.708 306.504 593.708 308.424V309.648H598.748C602.012 309.648 603.644 311.016 603.644 313.752C603.644 316.44 602.012 317.784 598.748 317.784H593.708V340.248C593.708 341.928 593.18 343.2 592.124 344.064C591.116 344.928 589.844 345.36 588.308 345.36C586.724 345.36 585.404 344.928 584.348 344.064C583.34 343.2 582.836 341.928 582.836 340.248V317.784H579.956C576.74 317.784 575.132 316.44 575.132 313.752C575.132 311.016 576.74 309.648 579.956 309.648H582.836C582.836 305.04 584.108 301.416 586.652 298.776C589.196 296.136 592.7 294.648 597.164 294.312L599.036 294.168L600.332 294.096C603.644 294.096 605.3 295.368 605.3 297.912C605.3 300.408 603.908 301.776 601.124 302.016L599.252 302.16ZM622.738 345.576C618.994 345.576 615.706 344.832 612.874 343.344C610.042 341.808 607.858 339.672 606.322 336.936C604.786 334.152 604.018 330.888 604.018 327.144C604.018 323.4 604.786 320.16 606.322 317.424C607.858 314.64 610.042 312.504 612.874 311.016C615.706 309.528 618.994 308.784 622.738 308.784C626.482 308.784 629.77 309.528 632.602 311.016C635.434 312.504 637.618 314.64 639.154 317.424C640.69 320.16 641.458 323.4 641.458 327.144C641.458 330.888 640.69 334.152 639.154 336.936C637.618 339.672 635.434 341.808 632.602 343.344C629.77 344.832 626.482 345.576 622.738 345.576ZM622.738 337.296C628.018 337.296 630.658 333.912 630.658 327.144C630.658 323.736 629.962 321.192 628.57 319.512C627.226 317.832 625.282 316.992 622.738 316.992C617.458 316.992 614.818 320.376 614.818 327.144C614.818 333.912 617.458 337.296 622.738 337.296ZM668.17 308.928C669.61 308.832 670.738 309.168 671.554 309.936C672.418 310.656 672.85 311.76 672.85 313.248C672.85 314.832 672.466 316.008 671.698 316.776C670.93 317.544 669.562 318.024 667.594 318.216L665.434 318.432C662.794 318.72 660.874 319.584 659.674 321.024C658.522 322.464 657.946 324.312 657.946 326.568V340.32C657.946 342 657.418 343.272 656.362 344.136C655.354 345 654.082 345.432 652.546 345.432C650.962 345.432 649.642 345 648.586 344.136C647.578 343.272 647.074 342 647.074 340.32V313.896C647.074 312.312 647.602 311.088 648.658 310.224C649.714 309.36 650.986 308.928 652.474 308.928C653.914 308.928 655.114 309.36 656.074 310.224C657.034 311.04 657.514 312.192 657.514 313.68V315.624C658.378 313.56 659.674 311.976 661.402 310.872C663.178 309.768 665.098 309.144 667.162 309L668.17 308.928ZM846.813 329.304C845.757 329.304 844.917 328.944 844.293 328.224C843.717 327.504 843.429 326.544 843.429 325.344C843.429 322.896 843.861 320.856 844.725 319.224C845.637 317.592 846.957 315.792 848.685 313.824C849.981 312.336 850.917 311.112 851.493 310.152C852.117 309.144 852.429 308.016 852.429 306.768C852.429 305.424 851.925 304.368 850.917 303.6C849.957 302.784 848.637 302.376 846.957 302.376C845.421 302.376 843.981 302.688 842.637 303.312C841.341 303.936 839.589 304.896 837.381 306.192C835.989 306.96 834.837 307.344 833.925 307.344C832.917 307.344 832.053 306.912 831.333 306.048C830.661 305.136 830.325 304.056 830.325 302.808C830.325 301.944 830.469 301.224 830.757 300.648C831.093 300.024 831.597 299.448 832.269 298.92C834.381 297.24 836.805 295.944 839.541 295.032C842.325 294.072 845.109 293.592 847.893 293.592C850.869 293.592 853.533 294.12 855.885 295.176C858.285 296.232 860.133 297.696 861.429 299.568C862.773 301.392 863.445 303.456 863.445 305.76C863.445 307.536 863.085 309.168 862.365 310.656C861.693 312.096 860.877 313.368 859.917 314.472C858.957 315.528 857.661 316.848 856.029 318.432C854.205 320.112 852.837 321.528 851.925 322.68C851.013 323.784 850.437 325.032 850.197 326.424C850.005 327.336 849.597 328.056 848.973 328.584C848.397 329.064 847.677 329.304 846.813 329.304ZM846.957 345.432C845.181 345.432 843.717 344.856 842.565 343.704C841.413 342.504 840.837 341.016 840.837 339.24C840.837 337.464 841.413 336 842.565 334.848C843.717 333.648 845.181 333.048 846.957 333.048C848.685 333.048 850.125 333.648 851.277 334.848C852.429 336 853.005 337.464 853.005 339.24C853.005 341.016 852.429 342.504 851.277 343.704C850.125 344.856 848.685 345.432 846.957 345.432Z" fill="white"/>
<path d="M716.474 308.784C724.682 308.784 728.786 313.752 728.786 323.688V340.32C728.786 341.904 728.282 343.152 727.274 344.064C726.314 344.976 724.994 345.432 723.314 345.432C721.634 345.432 720.314 344.976 719.354 344.064C718.394 343.152 717.914 341.904 717.914 340.32V323.544C717.914 321.432 717.458 319.872 716.546 318.864C715.682 317.808 714.314 317.28 712.442 317.28C710.186 317.28 708.362 318 706.97 319.44C705.626 320.88 704.954 322.8 704.954 325.2V340.32C704.954 341.904 704.474 343.152 703.514 344.064C702.554 344.976 701.234 345.432 699.554 345.432C697.874 345.432 696.53 344.976 695.522 344.064C694.562 343.152 694.082 341.904 694.082 340.32V298.848C694.082 297.36 694.586 296.16 695.594 295.248C696.65 294.336 698.018 293.88 699.698 293.88C701.282 293.88 702.554 294.312 703.514 295.176C704.474 296.04 704.954 297.192 704.954 298.632V314.328C706.202 312.504 707.81 311.136 709.778 310.224C711.746 309.264 713.978 308.784 716.474 308.784ZM764.271 334.488C765.231 334.488 765.999 334.872 766.575 335.64C767.199 336.408 767.511 337.392 767.511 338.592C767.511 339.408 767.271 340.176 766.791 340.896C766.311 341.568 765.639 342.144 764.775 342.624C763.143 343.488 761.247 344.208 759.087 344.784C756.927 345.312 754.935 345.576 753.111 345.576C749.271 345.576 745.911 344.832 743.031 343.344C740.199 341.856 738.015 339.744 736.479 337.008C734.943 334.224 734.175 330.96 734.175 327.216C734.175 323.616 734.919 320.424 736.407 317.64C737.895 314.856 739.959 312.696 742.599 311.16C745.239 309.576 748.239 308.784 751.599 308.784C754.815 308.784 757.623 309.504 760.023 310.944C762.471 312.336 764.367 314.352 765.711 316.992C767.055 319.584 767.727 322.632 767.727 326.136C767.727 327.192 767.463 328.008 766.935 328.584C766.455 329.112 765.759 329.376 764.847 329.376H744.687C745.023 332.208 745.887 334.272 747.279 335.568C748.671 336.816 750.663 337.44 753.255 337.44C754.647 337.44 755.895 337.272 756.999 336.936C758.103 336.6 759.327 336.144 760.671 335.568C761.343 335.28 761.991 335.04 762.615 334.848C763.239 334.608 763.791 334.488 764.271 334.488ZM751.887 316.272C749.823 316.272 748.167 316.944 746.919 318.288C745.671 319.584 744.927 321.48 744.687 323.976H758.583C758.439 321.432 757.791 319.512 756.639 318.216C755.535 316.92 753.951 316.272 751.887 316.272ZM778.765 345.432C777.181 345.432 775.861 345 774.805 344.136C773.797 343.272 773.293 342 773.293 340.32V298.992C773.293 297.312 773.797 296.04 774.805 295.176C775.861 294.312 777.181 293.88 778.765 293.88C780.301 293.88 781.573 294.312 782.581 295.176C783.637 296.04 784.165 297.312 784.165 298.992V340.32C784.165 342 783.637 343.272 782.581 344.136C781.573 345 780.301 345.432 778.765 345.432ZM813.377 308.784C816.401 308.784 819.089 309.576 821.441 311.16C823.841 312.696 825.689 314.88 826.984 317.712C828.329 320.496 829.001 323.712 829.001 327.36C829.001 331.008 828.329 334.224 826.984 337.008C825.689 339.744 823.865 341.856 821.513 343.344C819.161 344.832 816.449 345.576 813.377 345.576C810.977 345.576 808.793 345.096 806.825 344.136C804.905 343.128 803.417 341.736 802.361 339.96V353.568C802.361 355.008 801.881 356.16 800.921 357.024C799.961 357.888 798.689 358.32 797.105 358.32C795.425 358.32 794.057 357.864 793.001 356.952C791.993 356.04 791.489 354.84 791.489 353.352V314.04C791.489 312.504 791.969 311.28 792.929 310.368C793.937 309.408 795.257 308.928 796.889 308.928C798.521 308.928 799.817 309.408 800.777 310.368C801.737 311.28 802.217 312.504 802.217 314.04V314.616C803.273 312.792 804.785 311.376 806.753 310.368C808.721 309.312 810.929 308.784 813.377 308.784ZM810.209 337.296C812.753 337.296 814.721 336.456 816.113 334.776C817.505 333.048 818.201 330.576 818.201 327.36C818.201 324.096 817.505 321.576 816.113 319.8C814.721 317.976 812.753 317.064 810.209 317.064C807.665 317.064 805.697 317.952 804.305 319.728C802.913 321.456 802.217 323.952 802.217 327.216C802.217 330.432 802.913 332.928 804.305 334.704C805.697 336.432 807.665 337.296 810.209 337.296Z" fill="#ED715D"/>
<path d="M511.69 415V402.203H516.173C517.726 402.203 518.903 402.502 519.706 403.1C520.509 403.691 520.91 404.562 520.91 405.71C520.91 406.337 520.749 406.891 520.427 407.371C520.104 407.846 519.656 408.194 519.082 408.417C519.738 408.581 520.254 408.912 520.629 409.41C521.01 409.908 521.2 410.518 521.2 411.238C521.2 412.469 520.808 413.4 520.022 414.033C519.237 414.666 518.118 414.988 516.665 415H511.69ZM514.327 409.428V412.882H516.586C517.207 412.882 517.69 412.735 518.036 412.442C518.388 412.144 518.563 411.733 518.563 411.212C518.563 410.04 517.957 409.445 516.744 409.428H514.327ZM514.327 407.564H516.278C517.608 407.541 518.273 407.011 518.273 405.974C518.273 405.394 518.104 404.978 517.764 404.726C517.43 404.468 516.899 404.339 516.173 404.339H514.327V407.564ZM526.57 411.405L528.328 405.49H531.053L527.229 416.477L527.019 416.978C526.45 418.22 525.513 418.841 524.206 418.841C523.837 418.841 523.462 418.785 523.081 418.674V416.749L523.468 416.758C523.948 416.758 524.306 416.685 524.54 416.538C524.78 416.392 524.968 416.148 525.103 415.809L525.401 415.026L522.07 405.49H524.804L526.57 411.405ZM543.34 411.643C543.34 411.145 543.164 410.764 542.812 410.5C542.461 410.23 541.828 409.949 540.914 409.656C540 409.357 539.276 409.064 538.743 408.777C537.29 407.992 536.563 406.935 536.563 405.604C536.563 404.913 536.757 404.298 537.144 403.759C537.536 403.214 538.096 402.789 538.822 402.484C539.555 402.18 540.375 402.027 541.283 402.027C542.197 402.027 543.012 402.194 543.727 402.528C544.441 402.856 544.995 403.322 545.388 403.926C545.786 404.529 545.985 405.215 545.985 405.982H543.349C543.349 405.396 543.164 404.942 542.795 404.62C542.426 404.292 541.907 404.128 541.239 404.128C540.595 404.128 540.094 404.266 539.736 404.541C539.379 404.811 539.2 405.168 539.2 405.613C539.2 406.029 539.408 406.378 539.824 406.659C540.246 406.94 540.864 407.204 541.679 407.45C543.179 407.901 544.271 408.461 544.957 409.129C545.643 409.797 545.985 410.629 545.985 411.625C545.985 412.732 545.566 413.603 544.729 414.235C543.891 414.862 542.763 415.176 541.345 415.176C540.36 415.176 539.464 414.997 538.655 414.64C537.847 414.276 537.229 413.781 536.801 413.154C536.379 412.527 536.168 411.801 536.168 410.975H538.813C538.813 412.387 539.657 413.093 541.345 413.093C541.972 413.093 542.461 412.967 542.812 412.715C543.164 412.457 543.34 412.1 543.34 411.643ZM553.122 415C553.005 414.771 552.92 414.487 552.867 414.147C552.252 414.833 551.452 415.176 550.468 415.176C549.536 415.176 548.763 414.906 548.147 414.367C547.538 413.828 547.233 413.148 547.233 412.328C547.233 411.32 547.605 410.547 548.35 410.008C549.1 409.469 550.181 409.196 551.593 409.19H552.762V408.646C552.762 408.206 552.647 407.854 552.419 407.591C552.196 407.327 551.842 407.195 551.355 407.195C550.928 407.195 550.591 407.298 550.345 407.503C550.104 407.708 549.984 407.989 549.984 408.347H547.444C547.444 407.796 547.614 407.286 547.954 406.817C548.294 406.349 548.774 405.982 549.396 405.719C550.017 405.449 550.714 405.314 551.487 405.314C552.659 405.314 553.588 405.61 554.273 406.202C554.965 406.788 555.311 407.614 555.311 408.681V412.803C555.316 413.705 555.442 414.388 555.688 414.851V415H553.122ZM551.021 413.233C551.396 413.233 551.742 413.151 552.059 412.987C552.375 412.817 552.609 412.592 552.762 412.311V410.676H551.812C550.541 410.676 549.864 411.115 549.782 411.994L549.773 412.144C549.773 412.46 549.885 412.721 550.107 412.926C550.33 413.131 550.635 413.233 551.021 413.233ZM562.605 407.872C562.26 407.825 561.955 407.802 561.691 407.802C560.73 407.802 560.101 408.127 559.802 408.777V415H557.262V405.49H559.661L559.731 406.624C560.241 405.751 560.947 405.314 561.85 405.314C562.131 405.314 562.395 405.353 562.641 405.429L562.605 407.872ZM569.083 415C568.966 414.771 568.881 414.487 568.828 414.147C568.213 414.833 567.413 415.176 566.429 415.176C565.497 415.176 564.724 414.906 564.108 414.367C563.499 413.828 563.194 413.148 563.194 412.328C563.194 411.32 563.566 410.547 564.311 410.008C565.061 409.469 566.142 409.196 567.554 409.19H568.723V408.646C568.723 408.206 568.608 407.854 568.38 407.591C568.157 407.327 567.803 407.195 567.316 407.195C566.889 407.195 566.552 407.298 566.306 407.503C566.065 407.708 565.945 407.989 565.945 408.347H563.405C563.405 407.796 563.575 407.286 563.915 406.817C564.255 406.349 564.735 405.982 565.356 405.719C565.978 405.449 566.675 405.314 567.448 405.314C568.62 405.314 569.549 405.61 570.234 406.202C570.926 406.788 571.271 407.614 571.271 408.681V412.803C571.277 413.705 571.403 414.388 571.649 414.851V415H569.083ZM566.982 413.233C567.357 413.233 567.703 413.151 568.02 412.987C568.336 412.817 568.57 412.592 568.723 412.311V410.676H567.773C566.502 410.676 565.825 411.115 565.743 411.994L565.734 412.144C565.734 412.46 565.846 412.721 566.068 412.926C566.291 413.131 566.596 413.233 566.982 413.233ZM587.918 410.737C587.818 412.114 587.309 413.198 586.389 413.989C585.475 414.78 584.268 415.176 582.768 415.176C581.127 415.176 579.835 414.625 578.892 413.523C577.954 412.416 577.485 410.898 577.485 408.971V408.188C577.485 406.958 577.702 405.874 578.136 404.937C578.569 403.999 579.188 403.281 579.99 402.783C580.799 402.279 581.736 402.027 582.803 402.027C584.279 402.027 585.469 402.423 586.371 403.214C587.273 404.005 587.795 405.115 587.936 406.545H585.299C585.234 405.719 585.003 405.121 584.604 404.752C584.212 404.377 583.611 404.189 582.803 404.189C581.924 404.189 581.265 404.506 580.825 405.139C580.392 405.766 580.169 406.741 580.157 408.065V409.032C580.157 410.415 580.365 411.426 580.781 412.064C581.203 412.703 581.865 413.022 582.768 413.022C583.582 413.022 584.188 412.838 584.587 412.469C584.991 412.094 585.223 411.517 585.281 410.737H587.918ZM591.961 406.527C592.635 405.719 593.481 405.314 594.501 405.314C596.563 405.314 597.609 406.513 597.639 408.909V415H595.099V408.979C595.099 408.435 594.981 408.033 594.747 407.775C594.513 407.512 594.123 407.38 593.578 407.38C592.834 407.38 592.295 407.667 591.961 408.241V415H589.421V401.5H591.961V406.527ZM599.159 410.157C599.159 409.214 599.341 408.373 599.704 407.635C600.067 406.896 600.589 406.325 601.269 405.921C601.954 405.517 602.748 405.314 603.65 405.314C604.934 405.314 605.979 405.707 606.788 406.492C607.603 407.277 608.057 408.344 608.15 409.691L608.168 410.342C608.168 411.801 607.761 412.973 606.946 413.857C606.132 414.736 605.039 415.176 603.668 415.176C602.297 415.176 601.201 414.736 600.381 413.857C599.566 412.979 599.159 411.783 599.159 410.271V410.157ZM601.699 410.342C601.699 411.244 601.869 411.936 602.209 412.416C602.549 412.891 603.035 413.128 603.668 413.128C604.283 413.128 604.764 412.894 605.109 412.425C605.455 411.95 605.628 411.194 605.628 410.157C605.628 409.272 605.455 408.587 605.109 408.101C604.764 407.614 604.277 407.371 603.65 407.371C603.029 407.371 602.549 407.614 602.209 408.101C601.869 408.581 601.699 409.328 601.699 410.342ZM609.337 410.175C609.337 408.692 609.668 407.512 610.33 406.633C610.998 405.754 611.909 405.314 613.063 405.314C613.989 405.314 614.754 405.66 615.357 406.352V401.5H617.906V415H615.612L615.489 413.989C614.856 414.78 614.042 415.176 613.046 415.176C611.927 415.176 611.027 414.736 610.348 413.857C609.674 412.973 609.337 411.745 609.337 410.175ZM611.877 410.359C611.877 411.25 612.032 411.933 612.343 412.407C612.653 412.882 613.104 413.119 613.696 413.119C614.481 413.119 615.035 412.788 615.357 412.126V408.373C615.041 407.711 614.493 407.38 613.714 407.38C612.489 407.38 611.877 408.373 611.877 410.359ZM619.479 410.157C619.479 409.214 619.661 408.373 620.024 407.635C620.388 406.896 620.909 406.325 621.589 405.921C622.274 405.517 623.068 405.314 623.971 405.314C625.254 405.314 626.3 405.707 627.108 406.492C627.923 407.277 628.377 408.344 628.471 409.691L628.488 410.342C628.488 411.801 628.081 412.973 627.267 413.857C626.452 414.736 625.359 415.176 623.988 415.176C622.617 415.176 621.521 414.736 620.701 413.857C619.887 412.979 619.479 411.783 619.479 410.271V410.157ZM622.02 410.342C622.02 411.244 622.189 411.936 622.529 412.416C622.869 412.891 623.355 413.128 623.988 413.128C624.604 413.128 625.084 412.894 625.43 412.425C625.775 411.95 625.948 411.194 625.948 410.157C625.948 409.272 625.775 408.587 625.43 408.101C625.084 407.614 624.598 407.371 623.971 407.371C623.35 407.371 622.869 407.614 622.529 408.101C622.189 408.581 622.02 409.328 622.02 410.342ZM635.203 412.372C635.203 412.062 635.048 411.818 634.737 411.643C634.433 411.461 633.94 411.3 633.261 411.159C630.999 410.685 629.868 409.724 629.868 408.276C629.868 407.433 630.217 406.729 630.914 406.167C631.617 405.599 632.534 405.314 633.665 405.314C634.872 405.314 635.836 405.599 636.557 406.167C637.283 406.735 637.646 407.474 637.646 408.382H635.106C635.106 408.019 634.989 407.72 634.755 407.485C634.521 407.245 634.154 407.125 633.656 407.125C633.229 407.125 632.897 407.222 632.663 407.415C632.429 407.608 632.312 407.854 632.312 408.153C632.312 408.435 632.443 408.663 632.707 408.839C632.977 409.009 633.428 409.158 634.061 409.287C634.693 409.41 635.227 409.551 635.66 409.709C637.002 410.201 637.673 411.054 637.673 412.267C637.673 413.134 637.301 413.837 636.557 414.376C635.812 414.909 634.852 415.176 633.674 415.176C632.877 415.176 632.168 415.035 631.547 414.754C630.932 414.467 630.448 414.077 630.097 413.585C629.745 413.087 629.569 412.551 629.569 411.977H631.978C632.001 412.428 632.168 412.773 632.479 413.014C632.789 413.254 633.205 413.374 633.727 413.374C634.213 413.374 634.579 413.283 634.825 413.102C635.077 412.914 635.203 412.671 635.203 412.372ZM641.795 406.527C642.469 405.719 643.315 405.314 644.335 405.314C646.397 405.314 647.443 406.513 647.473 408.909V415H644.933V408.979C644.933 408.435 644.815 408.033 644.581 407.775C644.347 407.512 643.957 407.38 643.412 407.38C642.668 407.38 642.129 407.667 641.795 408.241V415H639.255V401.5H641.795V406.527ZM650.048 418.208L648.721 417.514L649.037 416.942C649.43 416.228 649.632 415.516 649.644 414.807V412.838H651.788L651.779 414.596C651.773 415.246 651.609 415.902 651.287 416.564C650.965 417.227 650.552 417.774 650.048 418.208ZM663.012 406.615L665.411 402.203H668.443L664.717 408.549L668.54 415H665.473L663.012 410.518L660.551 415H657.483L661.307 408.549L657.58 402.203H660.612L663.012 406.615ZM675.22 415C675.103 414.771 675.018 414.487 674.965 414.147C674.35 414.833 673.55 415.176 672.565 415.176C671.634 415.176 670.86 414.906 670.245 414.367C669.636 413.828 669.331 413.148 669.331 412.328C669.331 411.32 669.703 410.547 670.447 410.008C671.197 409.469 672.278 409.196 673.69 409.19H674.859V408.646C674.859 408.206 674.745 407.854 674.517 407.591C674.294 407.327 673.939 407.195 673.453 407.195C673.025 407.195 672.688 407.298 672.442 407.503C672.202 407.708 672.082 407.989 672.082 408.347H669.542C669.542 407.796 669.712 407.286 670.052 406.817C670.392 406.349 670.872 405.982 671.493 405.719C672.114 405.449 672.812 405.314 673.585 405.314C674.757 405.314 675.686 405.61 676.371 406.202C677.062 406.788 677.408 407.614 677.408 408.681V412.803C677.414 413.705 677.54 414.388 677.786 414.851V415H675.22ZM673.119 413.233C673.494 413.233 673.84 413.151 674.156 412.987C674.473 412.817 674.707 412.592 674.859 412.311V410.676H673.91C672.639 410.676 671.962 411.115 671.88 411.994L671.871 412.144C671.871 412.46 671.982 412.721 672.205 412.926C672.428 413.131 672.732 413.233 673.119 413.233ZM682.778 411.897L684.545 405.49H687.199L683.991 415H681.565L678.357 405.49H681.012L682.778 411.897ZM691.005 415H688.456V405.49H691.005V415ZM688.307 403.029C688.307 402.648 688.433 402.335 688.685 402.089C688.942 401.843 689.291 401.72 689.73 401.72C690.164 401.72 690.51 401.843 690.768 402.089C691.025 402.335 691.154 402.648 691.154 403.029C691.154 403.416 691.022 403.732 690.759 403.979C690.501 404.225 690.158 404.348 689.73 404.348C689.303 404.348 688.957 404.225 688.693 403.979C688.436 403.732 688.307 403.416 688.307 403.029ZM697.482 415.176C696.088 415.176 694.951 414.748 694.072 413.893C693.199 413.037 692.763 411.897 692.763 410.474V410.228C692.763 409.272 692.947 408.42 693.316 407.67C693.686 406.914 694.207 406.334 694.881 405.93C695.561 405.52 696.334 405.314 697.201 405.314C698.502 405.314 699.524 405.725 700.269 406.545C701.019 407.365 701.394 408.528 701.394 410.034V411.071H695.338C695.42 411.692 695.666 412.19 696.076 412.565C696.492 412.94 697.017 413.128 697.649 413.128C698.628 413.128 699.393 412.773 699.943 412.064L701.191 413.462C700.811 414.001 700.295 414.423 699.645 414.728C698.994 415.026 698.273 415.176 697.482 415.176ZM697.192 407.371C696.688 407.371 696.278 407.541 695.962 407.881C695.651 408.221 695.452 408.707 695.364 409.34H698.897V409.138C698.886 408.575 698.733 408.142 698.44 407.837C698.147 407.526 697.731 407.371 697.192 407.371ZM708.188 407.872C707.842 407.825 707.537 407.802 707.273 407.802C706.312 407.802 705.683 408.127 705.384 408.777V415H702.844V405.49H705.243L705.313 406.624C705.823 405.751 706.529 405.314 707.432 405.314C707.713 405.314 707.977 405.353 708.223 405.429L708.188 407.872ZM714.067 415V402.203H718.55C720.103 402.203 721.28 402.502 722.083 403.1C722.886 403.691 723.287 404.562 723.287 405.71C723.287 406.337 723.126 406.891 722.804 407.371C722.481 407.846 722.033 408.194 721.459 408.417C722.115 408.581 722.631 408.912 723.006 409.41C723.387 409.908 723.577 410.518 723.577 411.238C723.577 412.469 723.185 413.4 722.399 414.033C721.614 414.666 720.495 414.988 719.042 415H714.067ZM716.704 409.428V412.882H718.963C719.584 412.882 720.067 412.735 720.413 412.442C720.765 412.144 720.94 411.733 720.94 411.212C720.94 410.04 720.334 409.445 719.121 409.428H716.704ZM716.704 407.564H718.655C719.985 407.541 720.65 407.011 720.65 405.974C720.65 405.394 720.48 404.978 720.141 404.726C719.807 404.468 719.276 404.339 718.55 404.339H716.704V407.564ZM725.001 410.157C725.001 409.214 725.183 408.373 725.546 407.635C725.909 406.896 726.431 406.325 727.11 405.921C727.796 405.517 728.59 405.314 729.492 405.314C730.775 405.314 731.821 405.707 732.63 406.492C733.444 407.277 733.898 408.344 733.992 409.691L734.01 410.342C734.01 411.801 733.603 412.973 732.788 413.857C731.974 414.736 730.881 415.176 729.51 415.176C728.139 415.176 727.043 414.736 726.223 413.857C725.408 412.979 725.001 411.783 725.001 410.271V410.157ZM727.541 410.342C727.541 411.244 727.711 411.936 728.051 412.416C728.391 412.891 728.877 413.128 729.51 413.128C730.125 413.128 730.605 412.894 730.951 412.425C731.297 411.95 731.47 411.194 731.47 410.157C731.47 409.272 731.297 408.587 730.951 408.101C730.605 407.614 730.119 407.371 729.492 407.371C728.871 407.371 728.391 407.614 728.051 408.101C727.711 408.581 727.541 409.328 727.541 410.342ZM738.255 415H735.706V401.5H738.255V415ZM743.036 415H740.487V401.5H743.036V415ZM744.741 410.157C744.741 409.214 744.923 408.373 745.286 407.635C745.649 406.896 746.171 406.325 746.851 405.921C747.536 405.517 748.33 405.314 749.232 405.314C750.516 405.314 751.562 405.707 752.37 406.492C753.185 407.277 753.639 408.344 753.732 409.691L753.75 410.342C753.75 411.801 753.343 412.973 752.528 413.857C751.714 414.736 750.621 415.176 749.25 415.176C747.879 415.176 746.783 414.736 745.963 413.857C745.148 412.979 744.741 411.783 744.741 410.271V410.157ZM747.281 410.342C747.281 411.244 747.451 411.936 747.791 412.416C748.131 412.891 748.617 413.128 749.25 413.128C749.865 413.128 750.346 412.894 750.691 412.425C751.037 411.95 751.21 411.194 751.21 410.157C751.21 409.272 751.037 408.587 750.691 408.101C750.346 407.614 749.859 407.371 749.232 407.371C748.611 407.371 748.131 407.614 747.791 408.101C747.451 408.581 747.281 409.328 747.281 410.342ZM749.733 401.5H752.502L750.067 404.225H748.002L749.733 401.5ZM765.308 415C765.19 414.771 765.105 414.487 765.053 414.147C764.438 414.833 763.638 415.176 762.653 415.176C761.722 415.176 760.948 414.906 760.333 414.367C759.724 413.828 759.419 413.148 759.419 412.328C759.419 411.32 759.791 410.547 760.535 410.008C761.285 409.469 762.366 409.196 763.778 409.19H764.947V408.646C764.947 408.206 764.833 407.854 764.604 407.591C764.382 407.327 764.027 407.195 763.541 407.195C763.113 407.195 762.776 407.298 762.53 407.503C762.29 407.708 762.17 407.989 762.17 408.347H759.63C759.63 407.796 759.8 407.286 760.14 406.817C760.479 406.349 760.96 405.982 761.581 405.719C762.202 405.449 762.899 405.314 763.673 405.314C764.845 405.314 765.773 405.61 766.459 406.202C767.15 406.788 767.496 407.614 767.496 408.681V412.803C767.502 413.705 767.628 414.388 767.874 414.851V415H765.308ZM763.207 413.233C763.582 413.233 763.928 413.151 764.244 412.987C764.561 412.817 764.795 412.592 764.947 412.311V410.676H763.998C762.727 410.676 762.05 411.115 761.968 411.994L761.959 412.144C761.959 412.46 762.07 412.721 762.293 412.926C762.516 413.131 762.82 413.233 763.207 413.233ZM771.785 405.49L771.864 406.589C772.544 405.739 773.455 405.314 774.598 405.314C775.605 405.314 776.355 405.61 776.848 406.202C777.34 406.794 777.592 407.679 777.604 408.856V415H775.063V408.918C775.063 408.379 774.946 407.989 774.712 407.749C774.478 407.503 774.088 407.38 773.543 407.38C772.828 407.38 772.292 407.685 771.935 408.294V415H769.395V405.49H771.785ZM779.142 410.175C779.142 408.692 779.473 407.512 780.135 406.633C780.803 405.754 781.714 405.314 782.868 405.314C783.794 405.314 784.559 405.66 785.162 406.352V401.5H787.711V415H785.417L785.294 413.989C784.661 414.78 783.847 415.176 782.851 415.176C781.731 415.176 780.832 414.736 780.152 413.857C779.479 412.973 779.142 411.745 779.142 410.175ZM781.682 410.359C781.682 411.25 781.837 411.933 782.147 412.407C782.458 412.882 782.909 413.119 783.501 413.119C784.286 413.119 784.84 412.788 785.162 412.126V408.373C784.846 407.711 784.298 407.38 783.519 407.38C782.294 407.38 781.682 408.373 781.682 410.359ZM800.965 411.643C800.965 411.145 800.789 410.764 800.438 410.5C800.086 410.23 799.453 409.949 798.539 409.656C797.625 409.357 796.901 409.064 796.368 408.777C794.915 407.992 794.188 406.935 794.188 405.604C794.188 404.913 794.382 404.298 794.769 403.759C795.161 403.214 795.721 402.789 796.447 402.484C797.18 402.18 798 402.027 798.908 402.027C799.822 402.027 800.637 402.194 801.352 402.528C802.066 402.856 802.62 403.322 803.013 403.926C803.411 404.529 803.61 405.215 803.61 405.982H800.974C800.974 405.396 800.789 404.942 800.42 404.62C800.051 404.292 799.532 404.128 798.864 404.128C798.22 404.128 797.719 404.266 797.361 404.541C797.004 404.811 796.825 405.168 796.825 405.613C796.825 406.029 797.033 406.378 797.449 406.659C797.871 406.94 798.489 407.204 799.304 407.45C800.804 407.901 801.896 408.461 802.582 409.129C803.268 409.797 803.61 410.629 803.61 411.625C803.61 412.732 803.191 413.603 802.354 414.235C801.516 414.862 800.388 415.176 798.97 415.176C797.985 415.176 797.089 414.997 796.28 414.64C795.472 414.276 794.854 413.781 794.426 413.154C794.004 412.527 793.793 411.801 793.793 410.975H796.438C796.438 412.387 797.282 413.093 798.97 413.093C799.597 413.093 800.086 412.967 800.438 412.715C800.789 412.457 800.965 412.1 800.965 411.643ZM810.747 415C810.63 414.771 810.545 414.487 810.492 414.147C809.877 414.833 809.077 415.176 808.093 415.176C807.161 415.176 806.388 414.906 805.772 414.367C805.163 413.828 804.858 413.148 804.858 412.328C804.858 411.32 805.23 410.547 805.975 410.008C806.725 409.469 807.806 409.196 809.218 409.19H810.387V408.646C810.387 408.206 810.272 407.854 810.044 407.591C809.821 407.327 809.467 407.195 808.98 407.195C808.553 407.195 808.216 407.298 807.97 407.503C807.729 407.708 807.609 407.989 807.609 408.347H805.069C805.069 407.796 805.239 407.286 805.579 406.817C805.919 406.349 806.399 405.982 807.021 405.719C807.642 405.449 808.339 405.314 809.112 405.314C810.284 405.314 811.213 405.61 811.898 406.202C812.59 406.788 812.936 407.614 812.936 408.681V412.803C812.941 413.705 813.067 414.388 813.313 414.851V415H810.747ZM808.646 413.233C809.021 413.233 809.367 413.151 809.684 412.987C810 412.817 810.234 412.592 810.387 412.311V410.676H809.438C808.166 410.676 807.489 411.115 807.407 411.994L807.398 412.144C807.398 412.46 807.51 412.721 807.732 412.926C807.955 413.131 808.26 413.233 808.646 413.233ZM817.225 405.49L817.304 406.589C817.983 405.739 818.895 405.314 820.037 405.314C821.045 405.314 821.795 405.61 822.287 406.202C822.779 406.794 823.031 407.679 823.043 408.856V415H820.503V408.918C820.503 408.379 820.386 407.989 820.151 407.749C819.917 407.503 819.527 407.38 818.982 407.38C818.268 407.38 817.731 407.685 817.374 408.294V415H814.834V405.49H817.225ZM828.018 403.152V405.49H829.644V407.354H828.018V412.1C828.018 412.451 828.085 412.703 828.22 412.855C828.354 413.008 828.612 413.084 828.993 413.084C829.274 413.084 829.523 413.063 829.74 413.022V414.947C829.242 415.1 828.729 415.176 828.202 415.176C826.421 415.176 825.513 414.276 825.478 412.478V407.354H824.089V405.49H825.478V403.152H828.018ZM833.739 415H831.19V405.49H833.739V415ZM831.041 403.029C831.041 402.648 831.167 402.335 831.419 402.089C831.677 401.843 832.025 401.72 832.465 401.72C832.898 401.72 833.244 401.843 833.502 402.089C833.76 402.335 833.889 402.648 833.889 403.029C833.889 403.416 833.757 403.732 833.493 403.979C833.235 404.225 832.893 404.348 832.465 404.348C832.037 404.348 831.691 404.225 831.428 403.979C831.17 403.732 831.041 403.416 831.041 403.029ZM841.351 415C841.233 414.771 841.148 414.487 841.096 414.147C840.48 414.833 839.681 415.176 838.696 415.176C837.765 415.176 836.991 414.906 836.376 414.367C835.767 413.828 835.462 413.148 835.462 412.328C835.462 411.32 835.834 410.547 836.578 410.008C837.328 409.469 838.409 409.196 839.821 409.19H840.99V408.646C840.99 408.206 840.876 407.854 840.647 407.591C840.425 407.327 840.07 407.195 839.584 407.195C839.156 407.195 838.819 407.298 838.573 407.503C838.333 407.708 838.213 407.989 838.213 408.347H835.673C835.673 407.796 835.843 407.286 836.183 406.817C836.522 406.349 837.003 405.982 837.624 405.719C838.245 405.449 838.942 405.314 839.716 405.314C840.888 405.314 841.816 405.61 842.502 406.202C843.193 406.788 843.539 407.614 843.539 408.681V412.803C843.545 413.705 843.671 414.388 843.917 414.851V415H841.351ZM839.25 413.233C839.625 413.233 839.971 413.151 840.287 412.987C840.604 412.817 840.838 412.592 840.99 412.311V410.676H840.041C838.77 410.676 838.093 411.115 838.011 411.994L838.002 412.144C838.002 412.46 838.113 412.721 838.336 412.926C838.559 413.131 838.863 413.233 839.25 413.233ZM845.121 410.175C845.121 408.716 845.467 407.541 846.158 406.65C846.855 405.76 847.793 405.314 848.971 405.314C850.014 405.314 850.825 405.672 851.405 406.387L851.511 405.49H853.813V414.684C853.813 415.516 853.623 416.239 853.242 416.854C852.867 417.47 852.337 417.938 851.651 418.261C850.966 418.583 850.163 418.744 849.243 418.744C848.546 418.744 847.866 418.604 847.204 418.322C846.542 418.047 846.041 417.689 845.701 417.25L846.826 415.703C847.459 416.412 848.227 416.767 849.129 416.767C849.803 416.767 850.327 416.585 850.702 416.222C851.077 415.864 851.265 415.354 851.265 414.692V414.183C850.679 414.845 849.908 415.176 848.953 415.176C847.811 415.176 846.885 414.73 846.176 413.84C845.473 412.943 845.121 411.757 845.121 410.28V410.175ZM847.661 410.359C847.661 411.221 847.834 411.897 848.18 412.39C848.525 412.876 849 413.119 849.604 413.119C850.377 413.119 850.931 412.829 851.265 412.249V408.25C850.925 407.67 850.377 407.38 849.621 407.38C849.012 407.38 848.531 407.629 848.18 408.127C847.834 408.625 847.661 409.369 847.661 410.359ZM855.378 410.157C855.378 409.214 855.56 408.373 855.923 407.635C856.286 406.896 856.808 406.325 857.487 405.921C858.173 405.517 858.967 405.314 859.869 405.314C861.152 405.314 862.198 405.707 863.007 406.492C863.821 407.277 864.275 408.344 864.369 409.691L864.387 410.342C864.387 411.801 863.979 412.973 863.165 413.857C862.351 414.736 861.258 415.176 859.887 415.176C858.516 415.176 857.42 414.736 856.6 413.857C855.785 412.979 855.378 411.783 855.378 410.271V410.157ZM857.918 410.342C857.918 411.244 858.088 411.936 858.428 412.416C858.768 412.891 859.254 413.128 859.887 413.128C860.502 413.128 860.982 412.894 861.328 412.425C861.674 411.95 861.847 411.194 861.847 410.157C861.847 409.272 861.674 408.587 861.328 408.101C860.982 407.614 860.496 407.371 859.869 407.371C859.248 407.371 858.768 407.614 858.428 408.101C858.088 408.581 857.918 409.328 857.918 410.342ZM877.236 411.643C877.236 411.145 877.061 410.764 876.709 410.5C876.357 410.23 875.725 409.949 874.811 409.656C873.896 409.357 873.173 409.064 872.64 408.777C871.187 407.992 870.46 406.935 870.46 405.604C870.46 404.913 870.653 404.298 871.04 403.759C871.433 403.214 871.992 402.789 872.719 402.484C873.451 402.18 874.271 402.027 875.18 402.027C876.094 402.027 876.908 402.194 877.623 402.528C878.338 402.856 878.892 403.322 879.284 403.926C879.683 404.529 879.882 405.215 879.882 405.982H877.245C877.245 405.396 877.061 404.942 876.691 404.62C876.322 404.292 875.804 404.128 875.136 404.128C874.491 404.128 873.99 404.266 873.633 404.541C873.275 404.811 873.097 405.168 873.097 405.613C873.097 406.029 873.305 406.378 873.721 406.659C874.143 406.94 874.761 407.204 875.575 407.45C877.075 407.901 878.168 408.461 878.854 409.129C879.539 409.797 879.882 410.629 879.882 411.625C879.882 412.732 879.463 413.603 878.625 414.235C877.787 414.862 876.659 415.176 875.241 415.176C874.257 415.176 873.36 414.997 872.552 414.64C871.743 414.276 871.125 413.781 870.697 413.154C870.275 412.527 870.064 411.801 870.064 410.975H872.71C872.71 412.387 873.554 413.093 875.241 413.093C875.868 413.093 876.357 412.967 876.709 412.715C877.061 412.457 877.236 412.1 877.236 411.643ZM887.019 415C886.901 414.771 886.816 414.487 886.764 414.147C886.148 414.833 885.349 415.176 884.364 415.176C883.433 415.176 882.659 414.906 882.044 414.367C881.435 413.828 881.13 413.148 881.13 412.328C881.13 411.32 881.502 410.547 882.246 410.008C882.996 409.469 884.077 409.196 885.489 409.19H886.658V408.646C886.658 408.206 886.544 407.854 886.315 407.591C886.093 407.327 885.738 407.195 885.252 407.195C884.824 407.195 884.487 407.298 884.241 407.503C884.001 407.708 883.881 407.989 883.881 408.347H881.341C881.341 407.796 881.511 407.286 881.851 406.817C882.19 406.349 882.671 405.982 883.292 405.719C883.913 405.449 884.61 405.314 885.384 405.314C886.556 405.314 887.484 405.61 888.17 406.202C888.861 406.788 889.207 407.614 889.207 408.681V412.803C889.213 413.705 889.339 414.388 889.585 414.851V415H887.019ZM884.918 413.233C885.293 413.233 885.639 413.151 885.955 412.987C886.271 412.817 886.506 412.592 886.658 412.311V410.676H885.709C884.438 410.676 883.761 411.115 883.679 411.994L883.67 412.144C883.67 412.46 883.781 412.721 884.004 412.926C884.227 413.131 884.531 413.233 884.918 413.233ZM893.839 415H891.29V401.5H893.839V415ZM899.895 413.128C900.363 413.128 900.744 412.999 901.037 412.741C901.33 412.483 901.482 412.141 901.494 411.713H903.876C903.87 412.357 903.694 412.949 903.349 413.488C903.003 414.021 902.528 414.438 901.925 414.736C901.327 415.029 900.665 415.176 899.938 415.176C898.579 415.176 897.507 414.745 896.722 413.884C895.937 413.017 895.544 411.821 895.544 410.298V410.131C895.544 408.666 895.934 407.497 896.713 406.624C897.492 405.751 898.562 405.314 899.921 405.314C901.11 405.314 902.062 405.654 902.777 406.334C903.498 407.008 903.864 407.907 903.876 409.032H901.494C901.482 408.54 901.33 408.142 901.037 407.837C900.744 407.526 900.357 407.371 899.877 407.371C899.285 407.371 898.837 407.588 898.532 408.021C898.233 408.449 898.084 409.146 898.084 410.113V410.377C898.084 411.355 898.233 412.059 898.532 412.486C898.831 412.914 899.285 413.128 899.895 413.128ZM908.007 415H905.458V405.49H908.007V415ZM905.309 403.029C905.309 402.648 905.435 402.335 905.687 402.089C905.944 401.843 906.293 401.72 906.732 401.72C907.166 401.72 907.512 401.843 907.77 402.089C908.027 402.335 908.156 402.648 908.156 403.029C908.156 403.416 908.024 403.732 907.761 403.979C907.503 404.225 907.16 404.348 906.732 404.348C906.305 404.348 905.959 404.225 905.695 403.979C905.438 403.732 905.309 403.416 905.309 403.029ZM909.712 410.175C909.712 408.692 910.043 407.512 910.705 406.633C911.373 405.754 912.284 405.314 913.438 405.314C914.364 405.314 915.129 405.66 915.732 406.352V401.5H918.281V415H915.987L915.864 413.989C915.231 414.78 914.417 415.176 913.421 415.176C912.302 415.176 911.402 414.736 910.723 413.857C910.049 412.973 909.712 411.745 909.712 410.175ZM912.252 410.359C912.252 411.25 912.407 411.933 912.718 412.407C913.028 412.882 913.479 413.119 914.071 413.119C914.856 413.119 915.41 412.788 915.732 412.126V408.373C915.416 407.711 914.868 407.38 914.089 407.38C912.864 407.38 912.252 408.373 912.252 410.359ZM919.854 410.157C919.854 409.214 920.036 408.373 920.399 407.635C920.763 406.896 921.284 406.325 921.964 405.921C922.649 405.517 923.443 405.314 924.346 405.314C925.629 405.314 926.675 405.707 927.483 406.492C928.298 407.277 928.752 408.344 928.846 409.691L928.863 410.342C928.863 411.801 928.456 412.973 927.642 413.857C926.827 414.736 925.734 415.176 924.363 415.176C922.992 415.176 921.896 414.736 921.076 413.857C920.262 412.979 919.854 411.783 919.854 410.271V410.157ZM922.395 410.342C922.395 411.244 922.564 411.936 922.904 412.416C923.244 412.891 923.73 413.128 924.363 413.128C924.979 413.128 925.459 412.894 925.805 412.425C926.15 411.95 926.323 411.194 926.323 410.157C926.323 409.272 926.15 408.587 925.805 408.101C925.459 407.614 924.973 407.371 924.346 407.371C923.725 407.371 923.244 407.614 922.904 408.101C922.564 408.581 922.395 409.328 922.395 410.342ZM670.166 426.203L674.35 436.645L678.533 426.203H680.722V439H679.034V434.017L679.192 428.638L674.991 439H673.699L669.507 428.664L669.674 434.017V439H667.986V426.203H670.166ZM689.317 439C689.224 438.812 689.147 438.479 689.089 437.998C688.333 438.783 687.431 439.176 686.382 439.176C685.444 439.176 684.674 438.912 684.07 438.385C683.473 437.852 683.174 437.178 683.174 436.363C683.174 435.373 683.549 434.605 684.299 434.061C685.055 433.51 686.115 433.234 687.48 433.234H689.062V432.487C689.062 431.919 688.893 431.468 688.553 431.134C688.213 430.794 687.712 430.624 687.05 430.624C686.47 430.624 685.983 430.771 685.591 431.063C685.198 431.356 685.002 431.711 685.002 432.127H683.367C683.367 431.652 683.534 431.195 683.868 430.756C684.208 430.311 684.665 429.959 685.239 429.701C685.819 429.443 686.455 429.314 687.146 429.314C688.242 429.314 689.101 429.59 689.722 430.141C690.343 430.686 690.665 431.438 690.688 432.399V436.776C690.688 437.649 690.8 438.344 691.022 438.859V439H689.317ZM686.619 437.761C687.129 437.761 687.612 437.629 688.069 437.365C688.526 437.102 688.857 436.759 689.062 436.337V434.386H687.788C685.796 434.386 684.8 434.969 684.8 436.135C684.8 436.645 684.97 437.043 685.31 437.33C685.649 437.617 686.086 437.761 686.619 437.761ZM696.208 436.618L698.423 429.49H700.163L696.34 440.468C695.748 442.05 694.808 442.841 693.519 442.841L693.211 442.814L692.604 442.7V441.382L693.044 441.417C693.595 441.417 694.022 441.306 694.327 441.083C694.638 440.86 694.893 440.453 695.092 439.861L695.452 438.895L692.06 429.49H693.835L696.208 436.618ZM711.264 439H709.629V428.163L706.351 429.367V427.891L711.009 426.142H711.264V439ZM722.892 434.702H724.667V436.029H722.892V439H721.257V436.029H715.43V435.071L721.16 426.203H722.892V434.702ZM717.275 434.702H721.257V428.427L721.063 428.778L717.275 434.702ZM726.249 441.549L725.326 440.916C725.877 440.148 726.164 439.357 726.188 438.543V437.075H727.778V438.35C727.778 438.941 727.632 439.533 727.339 440.125C727.052 440.717 726.688 441.191 726.249 441.549ZM742.518 439H734.133V437.831L738.562 432.909C739.219 432.165 739.67 431.562 739.916 431.099C740.168 430.63 740.294 430.146 740.294 429.648C740.294 428.98 740.092 428.433 739.688 428.005C739.283 427.577 738.744 427.363 738.07 427.363C737.262 427.363 736.632 427.595 736.181 428.058C735.735 428.515 735.513 429.153 735.513 429.974H733.887C733.887 428.796 734.265 427.844 735.021 427.117C735.782 426.391 736.799 426.027 738.07 426.027C739.26 426.027 740.2 426.341 740.892 426.968C741.583 427.589 741.929 428.418 741.929 429.455C741.929 430.715 741.126 432.215 739.521 433.955L736.093 437.673H742.518V439ZM752.265 433.542C752.265 435.446 751.939 436.861 751.289 437.787C750.639 438.713 749.622 439.176 748.239 439.176C746.874 439.176 745.863 438.725 745.207 437.822C744.551 436.914 744.211 435.561 744.188 433.762V431.591C744.188 429.71 744.513 428.312 745.163 427.398C745.813 426.484 746.833 426.027 748.222 426.027C749.599 426.027 750.612 426.47 751.263 427.354C751.913 428.233 752.247 429.593 752.265 431.433V433.542ZM750.639 431.318C750.639 429.941 750.445 428.939 750.059 428.312C749.672 427.68 749.06 427.363 748.222 427.363C747.39 427.363 746.783 427.677 746.402 428.304C746.021 428.931 745.825 429.895 745.813 431.195V433.797C745.813 435.18 746.013 436.202 746.411 436.864C746.815 437.521 747.425 437.849 748.239 437.849C749.042 437.849 749.637 437.538 750.023 436.917C750.416 436.296 750.621 435.317 750.639 433.981V431.318ZM762.732 439H754.348V437.831L758.777 432.909C759.434 432.165 759.885 431.562 760.131 431.099C760.383 430.63 760.509 430.146 760.509 429.648C760.509 428.98 760.307 428.433 759.902 428.005C759.498 427.577 758.959 427.363 758.285 427.363C757.477 427.363 756.847 427.595 756.396 428.058C755.95 428.515 755.728 429.153 755.728 429.974H754.102C754.102 428.796 754.479 427.844 755.235 427.117C755.997 426.391 757.014 426.027 758.285 426.027C759.475 426.027 760.415 426.341 761.106 426.968C761.798 427.589 762.144 428.418 762.144 429.455C762.144 430.715 761.341 432.215 759.735 433.955L756.308 437.673H762.732V439ZM769.799 439H768.164V428.163L764.886 429.367V427.891L769.544 426.142H769.799V439Z" fill="white"/>
<defs>
<clipPath id="clip0">
<rect width="1440" height="1496" fill="white"/>
</clipPath>
</defs>
</svg>
