<?xml version="1.0" encoding="utf-8"?>
<!-- Generator: Adobe Illustrator 25.2.3, SVG Export Plug-In . SVG Version: 6.00 Build 0)  -->
<svg version="1.1" baseProfile="basic" id="Layer_1"
	 xmlns="http://www.w3.org/2000/svg" xmlns:xlink="http://www.w3.org/1999/xlink" x="0px" y="0px" viewBox="0 0 1440 1496"
	 xml:space="preserve">
<g>
	<defs>
		<rect id="SVGID_1_" width="1440" height="1496"/>
	</defs>
	<clipPath id="SVGID_2_">
		<use xlink:href="#SVGID_1_"  overflow="visible"/>
	</clipPath>
	<g clip-path="url(#SVGID_2_)">
		<path fill="#002869" d="M1260.7,255.8c-51.1,76,1.3,168.4-191.7,288.9c-89.8,55.9-40.1,155.9-169.7,199
			c-7.1,2.2-194-3.7-194.1-3.5c-0.6,0.3-1.3,0.5-1.9,0.8c-20.7,7.9-34.2-12.7-43.4-10.1c-145.3,41.3-186.4-5.5-224-78
			c-65-125.4-188.4-95.4-218.1-247.1c-17.8-91-24.4-140.5-111-206.2C27,138.9,9.5,59.7,0,0h1440.6
			C1440.6,162.2,1315.3,174.4,1260.7,255.8z"/>
		<path fill="#002869" d="M672.5,1358c129.9,13,475-230.8,475-230.8c-66-60.5-423.9,31.6-423.9,31.6
			C704.6,1165.2,661.4,1353.5,672.5,1358z"/>
		<path fill="#002869" d="M756.3,1356.1c-129.7,13-488.2-232.2-488.2-232.2c101.3-56.2,437.3,33.1,437.3,33.1
			C724.2,1163.2,767.4,1351.4,756.3,1356.1z"/>
		<path fill="#002869" d="M926.9,1195.2c0,0-35.2-65-76-126.4c-81.6,9.5-178.9,12.2-259,3.2c0,0-57.3,73.4-66.8,120.9
			C516.1,1238.7,885,1281.1,926.9,1195.2z"/>
		<path fill="#FDB88E" d="M660.5,1364.9c0,0-5.8-48.2,18.6-51.7c40.8-6.1,97.8-11.6,123.5-12.8c33.7-1.6,62.9,14.1,66.5,32.4
			c4.7,23.9-37.6,40.6-65.7,40.8C695.9,1373.9,664.2,1361.4,660.5,1364.9z"/>
		<path fill="#016099" d="M670.7,1366.5c0,0-481.9-35.7-420.9-215.2c54.1-159.3,438.9,153.8,438.9,153.8
			C700.1,1312.9,682.9,1369.4,670.7,1366.5z"/>
		<path fill="#FDB88E" d="M761,1389.3c0,0,5-48.2-20.6-51.4c-13-1.6-27.6-3.2-42.4-4.6c-33.7-3.2-68.4-5.6-87.2-6.3
			c-35.3-1.1-65.7,15.1-69,33.4c-4.5,24.1,40.3,40.1,69.7,39.8C724,1398.8,757.1,1385.8,761,1389.3z"/>
		<path fill="#ED715D" d="M664,1330.2c-21.4-1.6-40.8-2.9-53.2-3.2c-35.3-1.1-65.7,15.1-69,33.4c-4.5,24.1,40.3,40.1,69.7,39.8
			c19.3-0.2,36.3-0.8,51.2-1.6l-17-3.5c-22.8,0.8-56.4-7.9-57.5-27.3c-1.8-27.5,36.9-36.6,53-35L664,1330.2z"/>
		<path fill="#ED715D" d="M742,1337.9C741.9,1337.9,741.9,1337.9,742,1337.9c-32.9-1.8-109.7-5.6-111.3-6.1
			c-1.1-0.3-1.8-1.3-1.4-2.4c0.3-1,1.3-1.6,2.2-1.4c3.2,0.5,80.8,4.5,110.5,5.9c1.1,0,1.9,1,1.9,2.1
			C744,1337.1,743,1337.9,742,1337.9z"/>
		<path fill="#ED715D" d="M635.4,1399.1c-1.8,0-3.4,0-5,0c-1.1,0-1.9-1-1.9-2.1c0-1.1,0.8-1.9,2.1-1.9c25,0.3,70-2.2,130.2-7.7
			c1.1-0.2,2.1,0.6,2.2,1.8c0.2,1.1-0.6,2.1-1.8,2.2C721.2,1394.9,667.8,1399.1,635.4,1399.1z"/>
		<path fill="#016099" d="M751.7,1397c0,0,483-59.1,415.1-240.9c-63.3-168.6-436.1,170.7-436.1,170.7
			C719.9,1335.4,739.6,1400.7,751.7,1397z"/>
		<path fill="#FDB88E" d="M130.7,1063c-3.1-4-9.5-20.9-8.5-28.1c1.3-12.4,12.7-30.7,18.3-27.9c8,4-1.8,11.9,1.9,24.9
			c2.2,7.9,13.6,2.7,23.4,9.3c3.2,2.2,6.6-10.1,0.3-15.2c-6.9-5.6-28.9-13-23.1-20.9c4-5.3,17.7,6.9,38.2,8.2
			c14.5,0.8,25.2,20.9,32.9,23.6c15.4,5.3,71.8-11.6,122.5-17.2c10-1.1,155.6-2.4,81.6,61c-23.1,19.9-172.6-1.9-204.7-2.6
			c-8.7,0-33.4-0.7-44.8-1.6C152.4,1075.2,133.6,1066.9,130.7,1063z"/>
		<path fill="#ED715D" d="M188,1050.2c-6.9,1.4-15.1,1-21-5.6c-0.8-0.8-0.6-2.2,0.2-2.9c0.8-0.8,2.2-0.7,2.9,0.2
			c9.3,10.3,24.7,1.6,25.4,1.3c1-0.6,2.2-0.2,2.9,0.8c0.6,1,0.2,2.2-0.8,2.9C195.3,1047.8,191.9,1049.4,188,1050.2z"/>
		<path fill="#ED715D" d="M144.8,1051.9c-0.5,0.2-0.8,0-1.3-0.2c-13.5-5.8-12-23.1-9.3-31.5c0.3-1.1,1.6-1.8,2.6-1.3
			c1.1,0.3,1.8,1.6,1.3,2.6c0,0.2-6.4,20.6,6.9,26.3c1.1,0.5,1.6,1.8,1.1,2.7C146.1,1051.5,145.5,1051.9,144.8,1051.9z"/>
		<path fill="#ED715D" d="M747.3,679.9c-284.2-1.1-257.2,203.3-321.5,265.3c-63.8,61.5-202.8,85.6-202.8,85.6
			c-7.2,1.4-10.8,51.4-2.7,55.6c0,0,165.1,55.2,289-4.2c86.2-41.3,125.6-110.3,138.6-177.1C678.6,749.9,763.6,668,747.3,679.9z"/>
		<path fill="#FDB88E" d="M1311.1,1063c3.1-4,9.5-20.9,8.5-28.1c-1.3-12.4-12.7-30.7-18.3-27.9c-8,4,1.8,11.9-1.9,24.9
			c-2.2,7.9-13.6,2.7-23.4,9.3c-3.2,2.2-6.6-10.1-0.3-15.2c6.9-5.6,28.9-13,23.1-20.9c-4-5.3-17.7,6.9-38.2,8.2
			c-14.5,0.8-25.2,20.9-32.9,23.6c-15.4,5.3-71.8-11.6-122.5-17.2c-9.9-1.1-155.6-2.4-81.6,61c23.1,19.9,172.6-1.9,204.7-2.6
			c8.7,0,33.4-0.7,44.8-1.6C1289.4,1075.2,1308.2,1066.9,1311.1,1063z"/>
		<path fill="#ED715D" d="M1253.8,1050.2c6.9,1.4,15.1,1,21-5.6c0.8-0.8,0.6-2.2-0.2-2.9c-0.8-0.8-2.2-0.7-2.9,0.2
			c-9.3,10.3-24.7,1.6-25.4,1.3c-1-0.6-2.2-0.2-2.9,0.8c-0.6,1-0.2,2.2,0.8,2.9C1246.6,1047.8,1249.9,1049.4,1253.8,1050.2z"/>
		<path fill="#ED715D" d="M1296.8,1051.9c0.5,0.2,0.8,0,1.3-0.2c13.5-5.8,12-23.1,9.3-31.5c-0.3-1.1-1.6-1.8-2.6-1.3
			c-1.1,0.3-1.8,1.6-1.3,2.6c0,0.2,6.4,20.6-6.9,26.3c-1.1,0.5-1.6,1.8-1.1,2.7C1295.7,1051.5,1296.2,1051.9,1296.8,1051.9z"/>
		<path fill="#ED715D" d="M694.5,679.9c284.2-1.1,257.2,203.3,321.5,265.3c63.8,61.5,202.8,85.6,202.8,85.6
			c7.2,1.4,10.8,51.4,2.7,55.6c0,0-165.1,55.2-289-4.2c-86.2-41.3-125.6-110.3-138.6-177.1C763.2,749.9,678.3,668,694.5,679.9z"/>
		<path fill="#ED715D" d="M851.1,1069c0,0,28.3-140.3,14.3-274.1c-14.3-136.2-277.8-135-290.2-13c-8.2,80.8,16.9,290.3,16.9,290.3
			C595.7,1086.8,847.5,1088.7,851.1,1069z"/>
		<path fill="#002869" d="M587.2,1030.9c-1,0-1.9-0.8-1.9-1.8c-1.6-17-5.6-34.2-9.5-50.7c-9.3-39.7-18-77.1,5-110.8
			c0.6-1,1.9-1.1,2.7-0.5c1,0.6,1.1,1.9,0.5,2.7c-22,32.3-13.5,68.9-4.3,107.6c3.9,16.7,7.9,33.9,9.6,51.2c0.2,1.1-0.6,2.1-1.8,2.2
			C587.2,1030.9,587.2,1030.9,587.2,1030.9z"/>
		<path fill="#002869" d="M857.2,1030.9H857c-1.1-0.2-1.9-1.1-1.8-2.2c1.6-17.3,5.6-34.5,9.6-51.2c9-38.7,17.7-75.3-4.3-107.6
			c-0.6-1-0.3-2.1,0.5-2.7c1-0.6,2.1-0.3,2.7,0.5c23,33.7,14.3,71.1,5,110.8c-3.9,16.5-7.9,33.6-9.5,50.7
			C858.9,1030.1,858.1,1030.9,857.2,1030.9z"/>
		<path fill="#FDB88E" d="M673.5,608.8l-3.7,83.8c-2.4,22.2,100,25.5,103.6,1.6V660L673.5,608.8z"/>
		<path fill="#FDB88E" d="M686,581.3c-0.5,69.9,50.9,88.3,89.8,82.9c27-3.9,40-37.4,44.8-53.8v-0.2c2.4-7.4,3.5-15.1,3.5-22.6
			c0-3.4-0.3-6.6-0.8-9.8c-0.3-2.4-0.8-4.8-1.1-7.4c-0.5-4-0.6-8.5-1-13.5c-0.8-15.6-4.2-22.2-7.7-27.3c-17-24.7-40-7.1-64.2-47.2
			C733.7,456.5,686.3,535.9,686,581.3z"/>
		<path fill="#ED715D" d="M742,594.3c3.1,12-7.9,23.3-20.9,19.6c-4-1.1-7.2-3.9-9.2-7.5c-6.3-12.2,2.9-25.2,15.6-24.4
			C734.6,582.6,740.4,587.6,742,594.3z"/>
		<path fill="#ED715D" d="M806.7,595.7c0.8,7.5,6.6,13.5,13.8,14.5c2.4-7.4,3.5-15.1,3.5-22.6c0-3.4-0.3-6.6-0.8-9.8
			c-0.6,0-1.3,0-1.9,0C812.4,578.7,805.8,586.8,806.7,595.7z"/>
		<path fill="#ED715D" d="M766.4,667.8c1,0,1.6-0.6,1.6-1.6c0-1-0.6-1.6-1.6-1.6c-0.5,0-44.3-0.3-65-26.8c-0.5-0.6-1.6-0.8-2.2-0.3
			c-0.6,0.5-0.8,1.6-0.3,2.2C720.5,667.5,764.7,667.8,766.4,667.8z"/>
		<path fill="#002869" d="M799.2,570.4c13.2,0.2,18.5-7.2,18.8-7.5c0.6-0.8,0.3-1.9-0.5-2.6c-0.8-0.6-1.9-0.3-2.6,0.5
			c-0.3,0.5-6.7,9.2-24.1,4.8c-1-0.3-1.9,0.3-2.2,1.3c-0.2,1,0.3,1.9,1.3,2.2C793.3,569.9,796.5,570.2,799.2,570.4z"/>
		<path fill="#002869" d="M744,575c8.2-0.3,13.7-4,14.1-4.2c0.8-0.5,1.1-1.6,0.5-2.6c-0.5-0.8-1.6-1.1-2.6-0.5
			c-0.5,0.3-13.3,8.5-28.1-1.1c-0.8-0.5-1.9-0.3-2.6,0.5c-0.5,0.8-0.3,1.9,0.5,2.6C732.4,574.1,738.7,575.2,744,575z"/>
		<path fill="#ED715D" d="M777.7,608.8c2.1,0,4.2-0.3,6.1-1.3c3.2-1.6,5.3-4.3,5.6-7.5c0.5-4.2-2.2-7.2-5-10.3
			c-1.3-1.4-2.7-3.1-3.7-4.7c-3.2-5.6-4.2-15.4-4.2-15.6c-0.2-1-1-1.8-1.9-1.6c-1,0.2-1.8,1-1.6,1.9c0,0.5,1.1,10.6,4.7,17
			c1.1,1.9,2.6,3.7,4,5.3c2.4,2.7,4.3,5,4.2,7.5c-0.3,2.7-2.4,4-3.5,4.7c-2.9,1.4-6.6,1.3-9.2-0.3c-0.8-0.5-1.9-0.3-2.6,0.6
			c-0.5,0.8-0.3,1.9,0.6,2.6C773.2,608.1,775.4,608.8,777.7,608.8z"/>
		<path fill="#002869" d="M747.5,424.1c-8.2-7.7-133.6-26.8-180.2,100.4c-11.1,30.2-99.9,178.4-99.9,178.4
			c47.9,61.7,136.3,64.4,180.5,33.1c37.7-26.7,62-91.7,62.1-161.4c1.6-70,69.7-62.3,53-97.3C739.3,426.5,747.5,424.1,747.5,424.1z"
			/>
		<path fill="#ED715D" d="M777.7,629c-8.4,0-14.5-2.9-14.9-3.1c-1-0.5-1.4-1.6-1-2.7c0.5-1,1.6-1.4,2.7-1c0.2,0,15.6,7.2,29.4-2.2
			c1-0.6,2.1-0.3,2.7,0.5c0.6,1,0.3,2.1-0.5,2.7C789.7,627.7,783.3,629,777.7,629z"/>
	</g>
</g>
</svg>
